<svg id="Layer_1" data-name="Layer 1" xmlns="http://www.w3.org/2000/svg" xmlns:xlink="http://www.w3.org/1999/xlink" viewBox="0 0 230.43 200"><defs><style>.cls-1{fill:#f2f2f2;}.cls-2{fill:#f3fdff;}.cls-3{fill:#e1f4f9;}.cls-12,.cls-17,.cls-18,.cls-19,.cls-21,.cls-22,.cls-4,.cls-8{fill:none;stroke-linecap:round;stroke-linejoin:round;}.cls-4{stroke:#758796;stroke-width:0.74px;}.cls-5{fill:#90dadd;}.cls-6{fill:#8dcece;}.cls-7{fill:#a9dbd9;}.cls-22,.cls-8{stroke:#768699;}.cls-8{stroke-width:1.02px;}.cls-9{fill:#f7ca7c;}.cls-10{fill:url(#linear-gradient);}.cls-11{fill:url(#linear-gradient-2);}.cls-12,.cls-17{stroke:#38455b;}.cls-12,.cls-19{stroke-width:0.4px;}.cls-13{fill:url(#linear-gradient-3);}.cls-14{fill:#ea759e;}.cls-15{fill:#38455b;}.cls-16{fill:url(#linear-gradient-4);}.cls-17{stroke-width:0.51px;}.cls-18{stroke:#8294a3;stroke-width:0.4px;}.cls-19{stroke:#cdd9e8;opacity:0.57;}.cls-20{fill:#fff;opacity:0.6;}.cls-21{stroke:#9aa9b5;stroke-width:0.29px;}</style><linearGradient id="linear-gradient" x1="1357.34" y1="21.36" x2="1368.13" y2="78.64" gradientTransform="matrix(-1, 0, 0, 1, 1444.98, 0)" gradientUnits="userSpaceOnUse"><stop offset="0.17" stop-color="#d1d6e2"/><stop offset="0.44" stop-color="#8bbbff"/><stop offset="1" stop-color="#ed87a4"/></linearGradient><linearGradient id="linear-gradient-2" x1="-581.84" y1="9.42" x2="-586.47" y2="107.26" gradientTransform="translate(676.71)" xlink:href="#linear-gradient"/><linearGradient id="linear-gradient-3" x1="-576.25" y1="5.86" x2="-551.75" y2="86.89" gradientTransform="translate(676.71)" xlink:href="#linear-gradient"/><linearGradient id="linear-gradient-4" x1="-587.26" y1="191.62" x2="-582.28" y2="50.66" gradientTransform="translate(676.71)" gradientUnits="userSpaceOnUse"><stop offset="0" stop-color="#c3decf"/><stop offset="0.11" stop-color="#aebac4"/><stop offset="0.22" stop-color="#9a98ba"/><stop offset="0.32" stop-color="#8e84b4"/><stop offset="0.39" stop-color="#8a7cb2"/><stop offset="0.48" stop-color="#847cb0"/><stop offset="0.62" stop-color="#717caa"/><stop offset="0.78" stop-color="#537ba1"/><stop offset="0.95" stop-color="#2a7a94"/><stop offset="1" stop-color="#1d7a90"/></linearGradient></defs><title>for_providers</title><path class="cls-1" d="M156.69,192.68c2.74-.15,24.77-1.16,34-1.54,51.65-2.16,31.75-6.64,18.08-6.88-68.52-1.2-153.34-5.66-189.11,1.19C2.91,188.66,14.63,198,56.94,198c31.56,0,37.77,1.83,67.46,1.79C138.08,199.75,149.75,193,156.69,192.68Z"/><path class="cls-2" d="M13.51,189C8,190.68-.38,180.44.52,162.9c.64-12.56.18-26,13-40.11C26.77,108.3,24.68,88.73,45.07,83.37,73.44,75.93,81.73,97,97.31,74.2,126.83,31,176.39,5.57,216.9,52.84c23.54,27.46,7.39,117.39,7.39,134,0,.8-66.34-2.08-169.24-3.32C19.1,183.09,13.51,189,13.51,189Z"/><polygon class="cls-3" points="123.23 116.63 147.25 1 221.07 1 202.19 116.63 123.23 116.63"/><polyline class="cls-4" points="221.07 1 202.19 116.63 124.18 116.72"/><path class="cls-5" d="M149.6,84.48h-9.75s0,0,0,.06l-4.6,23.53a.06.06,0,0,0,.06.06h9.58a.06.06,0,0,0,.05-.06l4.66-23.53S149.64,84.48,149.6,84.48Z"/><path class="cls-5" d="M178.42,91.68h-9.74s0,0,0,.06l-3.19,16.33a.06.06,0,0,0,0,.06h9.58a.06.06,0,0,0,.06-.06l3.24-16.33S178.45,91.68,178.42,91.68Z"/><path class="cls-5" d="M167.49,70.73h-9.8s-.1,0-.1.06l-7.22,37.28a.06.06,0,0,0,0,.06H160a.06.06,0,0,0,.06-.06l7.43-37.28S167.52,70.73,167.49,70.73Z"/><path class="cls-5" d="M199.63,61.43H189.8s0,0,0,.06l-9.19,46.58a.06.06,0,0,0,0,.06h9.58a.06.06,0,0,0,.06-.06l9.33-46.58S199.67,61.43,199.63,61.43Z"/><path class="cls-5" d="M147.11,67.9a.3.3,0,0,1-.22-.13.31.31,0,0,1,.07-.43l16.65-12.49,15,12.49,16.55-19a.28.28,0,0,1,.42,0,.32.32,0,0,1,0,.44L178.73,68.19,163.59,55.62,147.3,67.84A.27.27,0,0,1,147.11,67.9Z"/><ellipse class="cls-5" cx="147.26" cy="67.1" rx="2.89" ry="2.42" transform="translate(60.65 203.8) rotate(-82.14)"/><ellipse class="cls-5" cx="163.98" cy="54.94" rx="2.89" ry="2.42" transform="translate(87.11 209.86) rotate(-82.14)"/><ellipse class="cls-5" cx="178.7" cy="67.2" rx="2.89" ry="2.42" transform="translate(87.68 235.03) rotate(-82.14)"/><ellipse class="cls-5" cx="197.03" cy="47.58" rx="2.89" ry="2.42" transform="translate(122.94 236.24) rotate(-82.14)"/><path class="cls-5" d="M154.86,21.27c.89-3.51,3.68-5.91,6.55-5.84l1-4.65c-4.9-.32-9.75,3.72-11.28,9.72-1.64,6.41,1.14,12.68,6.21,14.3l1.06-5C155.46,28.72,153.9,25,154.86,21.27Z"/><path class="cls-6" d="M163.89,11c-.24-.06-.48-.1-.71-.14-.29,1.38-.63,3-1,4.64l.33.07c3.08.78,4.85,4.37,4.12,8.15l4.14.69C171.92,18.18,169,12.3,163.89,11Z"/><path class="cls-7" d="M159.08,30,158,35c5.31,1.2,10.9-3,12.56-9.53,0-.08,0-.16.05-.24l-4.16-.72C165.39,28.23,162.17,30.62,159.08,30Z"/><rect class="cls-5" x="182.72" y="14.7" width="26.43" height="1.85" rx="0.92"/><rect class="cls-5" x="181.69" y="19.55" width="26.43" height="1.85" rx="0.92"/><rect class="cls-5" x="180.94" y="24.48" width="26.43" height="1.85" rx="0.92"/><rect class="cls-5" x="179.99" y="29.03" width="26.43" height="1.85" rx="0.92"/><line class="cls-8" x1="107.66" y1="118.94" x2="91.31" y2="186.58"/><path class="cls-9" d="M99.2,39c-.2-.71-.39-9.38,1.2-9.82,3.72-1,6.34-1.83,6.89-3.94S106.4,14,105.54,11.4a17.73,17.73,0,0,1-2.84.62c-1.71.25-4.64-1-5.28,0s-.4,3-1.28,3.16-.4-.84-2.07-1.11-3.58,3.58-1.45,5.72a2.43,2.43,0,0,0,2.35.77s-.73,3.64-1.93,4.68S92,24.1,91.11,24.73s-.36,3.7-1.87,2.57L86.61,37.85Z"/><path class="cls-10" d="M81.88,37C71.53,44.5,62.87,51.8,62.7,56.73c-.15,4.29,25,28.75,25,28.75l7.51-7.2L77.94,57.77S95.58,46.7,99.19,42.67c3.26-3.65.13-11.29-5.31-11.09C88.89,31.77,86.55,33.68,81.88,37Z"/><path class="cls-11" d="M72,96.72S82.27,47.57,85.12,39.4c3.06-8.79,6.78-9.65,13-7.22,2.61,1,3.62,4.9,4.86,11.61,1.71,9.3,3.9,17.31,6.47,52.93Z"/><path class="cls-12" d="M87.68,25.66c1.5-3.7-4.29-6.3-5.48-11.74C81.05,8.64,83.7,7.06,86,6.58"/><path class="cls-12" d="M96.22,16.18c-.55-2-2.51-2.82-3.89-1.11a3.69,3.69,0,0,0,.29,4.75,2.29,2.29,0,0,0,2.35.77"/><path class="cls-13" d="M90.77,49.72c4.46,12,9.23,22.23,13.94,23.69C108.81,74.68,139,56.83,139,56.83l-5-9.15L109.73,59s-6-20-9-24.48c-2.71-4.12-11.2-3.2-12.09,2.21C87.85,41.64,88.75,44.33,90.77,49.72Z"/><path class="cls-12" d="M95.9,15.26c2.28-1.6.92-3.74,2.3-3.55s5.3.6,7.58-.34A5.91,5.91,0,0,0,109,8.21c1.06-2.44,3.14-6.24-6.69-4.2a10,10,0,0,1-1.68.15s-.38-.28-.56-.43a33.12,33.12,0,0,0-4.25-2.52C93-.32,88.26-.44,86.06,4.82"/><path class="cls-14" d="M106.82,16.81c2,2.39,2.42,3,2,3.37s-1.47.69-1.69.5a14.8,14.8,0,0,1-.61-3.8C106.65,16.55,106.82,16.81,106.82,16.81Z"/><path class="cls-12" d="M103.47,22.58a2,2,0,0,0,2.86.13"/><circle class="cls-15" cx="103.76" cy="16.55" r="0.62"/><path class="cls-12" d="M102.72,13.94a2.59,2.59,0,0,1,1.5-.52"/><path class="cls-9" d="M134.07,47.68c6.17-3,9.93-8,10.94-9.19,1.15-1.32,2.29-1.34,2.06-.06s-2.4,4.29-2.17,5.27,2.11,4.21,1.86,6.23-5.55,5.09-8.26,6Z"/><path class="cls-12" d="M100.23,3.88c1.91,1.31-3.59,3.55-3.32,1.83s3.85-1.44,4.73-1.59"/><path class="cls-16" d="M109.46,96.72c.6,15.65-.2,26.69-3.19,48.49-2.31,16.8-5.19,37.23-5.19,37.23l-10.66.05s1.3-15,1-25.72c0,0-2.19,3.52-8.27,23.15l-10.5-1.56s12.23-39.6,8.29-58.41c-4.46-21.28-3.23-23.23-3.23-23.23Z"/><path class="cls-12" d="M91.38,156.6c-.94-35.87-8.09-46.66-9.19-55"/><path class="cls-15" d="M72.33,180.75c-.46,2.56-1.2,6.7-1.28,7.32s.18,1.31,1.35,1.57c1,.22,20.68,3.82,21.68,4s1.92-1.37.62-2.63c-1.61-1.59-9.37-5.83-11.16-6.79a1.83,1.83,0,0,1-.91-2.09Z"/><path class="cls-15" d="M90.43,185.2c0,2.6,0,6.8,0,7.42s.42,1.26,1.61,1.31c1,0,21,.08,22,.07s1.65-1.68.15-2.7c-1.87-1.27-10.26-4.06-12.19-4.69a1.81,1.81,0,0,1-1.27-1.89Z"/><path class="cls-17" d="M141.14,43.29c.61.06.79,1,1,1.45s1.15.73,1.33,1.39-.06,1.22.49,1.46.72.54.66.91"/><path class="cls-18" d="M107.4,73.06a6.82,6.82,0,0,1-7-2.65C99.2,68.86,91.86,53.64,90.3,48.7"/><path class="cls-18" d="M109.73,59a13.59,13.59,0,0,0-2.89,1.56"/><path class="cls-19" d="M95.6,99a12.77,12.77,0,0,0,6.17,6.53,6.62,6.62,0,0,1,3.69,5.88c0,4-.34,9.6-2.22,13.87-3.23,7.29-3.38,10.82-1.51,16.42s.4,10-.79,13.57a22.22,22.22,0,0,0-1.27,7.49c0,1.53-2.18,13.47-2.86,18.56"/><polygon class="cls-9" points="100.81 184.72 101.08 182.44 91.16 182.49 91.03 185.16 100.81 184.72"/><polygon class="cls-9" points="82.63 182.13 83.15 179.92 73.93 178.55 73.23 180.86 82.63 182.13"/><path class="cls-20" d="M102.34,20.78a1.38,1.38,0,0,0-.42-2.62c-.85-.1-2.34.78-1.88,1.85A1.61,1.61,0,0,0,102.34,20.78Z"/><path class="cls-12" d="M93.75,16.16a4.11,4.11,0,0,0,1.5,1.31"/><path class="cls-21" d="M90.45,188.12c0,1.38,0,4.4.07,4.86"/><path class="cls-18" d="M80.8,55.86c1.91-9,4.76-18.52,6.25-21.74"/><line class="cls-22" x1="210.95" y1="66.77" x2="210.95" y2="186.28"/><line class="cls-22" x1="191.04" y1="117.58" x2="174.46" y2="186.07"/><line class="cls-22" x1="154.97" y1="117" x2="154.97" y2="186"/><line class="cls-22" x1="135.06" y1="117.3" x2="118.48" y2="185.79"/></svg>