<svg id="Layer_1" data-name="Layer 1" xmlns="http://www.w3.org/2000/svg" xmlns:xlink="http://www.w3.org/1999/xlink" viewBox="0 0 265.9 200"><defs><style>.cls-1{fill:#f2f2f2;}.cls-2{fill:#f3fdff;}.cls-3{fill:#7179b5;}.cls-4{fill:url(#linear-gradient);}.cls-24,.cls-5{fill:#d7ecf4;}.cls-5{opacity:0.88;}.cls-6{fill:#f7ca7c;}.cls-11,.cls-14,.cls-18,.cls-19,.cls-22,.cls-23,.cls-7{fill:none;stroke-linecap:round;stroke-linejoin:round;}.cls-11,.cls-7{stroke:#38455b;}.cls-7{stroke-width:0.45px;}.cls-8{fill:#ea759e;}.cls-13,.cls-21,.cls-9{fill:#fff;}.cls-9{opacity:0.6;}.cls-10{fill:#afb6ba;}.cls-11{stroke-width:0.55px;}.cls-12{fill:url(#linear-gradient-2);}.cls-14{stroke:#5b6d7f;stroke-width:0.43px;}.cls-15{fill:#768699;}.cls-16{fill:#94b7ea;}.cls-17{fill:#38455b;}.cls-18{stroke:#768699;stroke-width:1.19px;}.cls-19{stroke:#68788e;stroke-width:0.44px;}.cls-20{fill:#dd704a;opacity:0.33;}.cls-21{opacity:0.2;}.cls-22,.cls-23{stroke:#c5ced3;stroke-width:0.34px;}.cls-23{stroke-dasharray:2.52 2.52;}.cls-25{fill:#ccdde2;}.cls-26{fill:#bfced1;}</style><linearGradient id="linear-gradient" x1="137.61" y1="41.32" x2="137.93" y2="189.98" gradientUnits="userSpaceOnUse"><stop offset="0.13" stop-color="#9f8dc8"/><stop offset="0.38" stop-color="#bcaad7"/><stop offset="0.73" stop-color="#e1cee9"/><stop offset="1" stop-color="#ffe7b0"/></linearGradient><linearGradient id="linear-gradient-2" x1="178.55" y1="57.52" x2="97.62" y2="112.62" gradientUnits="userSpaceOnUse"><stop offset="0" stop-color="#fff"/><stop offset="1" stop-color="#8a8a8a"/></linearGradient></defs><title>for_providers</title><path class="cls-1" d="M206.78,199.47c2.29-.12,10.41-5,18.08-5.29,43-1.8,26.45-5.54,15.06-5.74-57.09-1-195.38-4.5-225.17,1.22C.81,192.33,80.67,198,115.92,198c26.29,0,28,1.87,52.71,1.84C180,199.79,201,199.77,206.78,199.47Z"/><path class="cls-2" d="M39.68,187.8c-21.64,1.56-34.18,6-38.13-8.06-2.73-9.75-2.81-36.32,11.82-42.59s46.64,3,79,11.39,41.71-32.79,54.69-51.78c24.6-36,67.51-57.53,103.63-20.3,34.25,35.31-.66,60.86-.66,112.35,0,2.63-42-3.47-140.11-2.4C80,186.73,39.68,187.8,39.68,187.8Z"/><rect class="cls-3" x="115.08" y="45.2" width="57.47" height="99.91" rx="3.9"/><path class="cls-4" d="M112.42,74.37c.17-9.8,3-13.27,9.78-13.5,4.93-.16,18.88.13,28,.06,7.51-.06,10.4.28,12.8,2.93,3.75,4.11,19,29.05,20.27,31.46s.88,6.82-2.25,7.11c-1.79.17-11.56.19-20.27.17v15.85L119,119.61l.11-7.61-27.6-7.91.24-13.45L113.8,95Z"/><path class="cls-5" d="M112.77,69.12c-.52-13,5-21.5,22.72-30.38,18.51-9.25,37.6-9,52.13,4.7C200.22,55.36,201,78.2,185.11,86c-12,5.9-32.66-1.64-24.09-23.69a9,9,0,0,0-4-1.07c-2.29-.17-11.57-.44-14.35-.39s-18.37-.05-20.93,0a10.8,10.8,0,0,0-6.07,2.16A13.91,13.91,0,0,0,112.77,69.12Z"/><path class="cls-6" d="M127.89,41.19s.08,1.34.08,2.33a1.45,1.45,0,0,0-2.36-.1c-.73.71-.6,3.37.07,4.84a2.38,2.38,0,0,0,2.66,1.24s-.6,5.43,3.44,8.81l.06,7.53L143,69.49l0-10.4a12.21,12.21,0,0,0,2.48-3.42,18.62,18.62,0,0,0,1.33-5.74,3.18,3.18,0,0,0,1.39,0c1.57-.37,1.9-4.28,1.41-5.54s-2.82-.25-2.82-.25l.19-3S145.73,39.25,141,40a77.71,77.71,0,0,1-9.27,1.2A32.86,32.86,0,0,1,127.89,41.19Z"/><path class="cls-7" d="M132.08,46.25c.72-.75,2.14-1.23,2.86,0"/><path class="cls-7" d="M140.27,45.79a2.06,2.06,0,0,1,3,.16"/><path class="cls-7" d="M126.66,45c.21.84,1.37,1.28,1.37,1.28"/><path class="cls-7" d="M126.68,47.17a1.83,1.83,0,0,1,1-1.05"/><path class="cls-7" d="M147.39,46.58c1.2-.13,1.15-.85,1.15-.85"/><path class="cls-7" d="M147.79,46.57a3.34,3.34,0,0,1,.69,1.17"/><path class="cls-7" d="M135.73,54.24c.86,1.54,3.41.88,3.91-.13"/><rect class="cls-8" x="136.75" y="47.4" width="1.77" height="4.37" rx="0.88" transform="translate(275.27 99.16) rotate(180)"/><path class="cls-9" d="M132.87,51a1.49,1.49,0,0,0-.66-2.79c-.92,0-2.46,1-1.88,2.15A1.73,1.73,0,0,0,132.87,51Z"/><path class="cls-9" d="M144,50.91a1.49,1.49,0,0,0-.66-2.78c-.92,0-2.46,1-1.89,2.14A1.74,1.74,0,0,0,144,50.91Z"/><path class="cls-7" d="M132.52,43.1a2.32,2.32,0,0,1,2.36-.18"/><path class="cls-7" d="M140.69,42.79a2.36,2.36,0,0,1,2.36.21"/><path class="cls-7" d="M146.69,45.65s.1-2.08.21-3.57-.78-2.43-3.53-2.43c-3.76,0-10.68,2.48-15.48,1.54-4.62-.9-5.32-10.67.25-12.85,6.26-2.46,5.17,4.07,4,5.55-.64.84-1.61,1.3-1.89.69-.72-1.53,8.25-5,11.24-3.46s-.43,5.2-1.67,4.74.23-1.78,3.41-2.2c7.57-1,7,2.71,6.38,3.83-1,1.94-2.56,4.29-.47,4.48"/><path class="cls-7" d="M146.92,44c1.6-.69,2.81-.16,2.92,1.33.14,2-.35,3.65-.89,4.12a2.45,2.45,0,0,1-2.22.45"/><path class="cls-10" d="M95.73,102.77A7,7,0,0,0,89,97.17a6.87,6.87,0,0,0-6.75,5.6Z"/><path class="cls-6" d="M81.45,92.75c1.22-1.73,5.68-3.52,11.14-1.94.48.14,1.21,2.86,2.86,4.67,1.44,1.57,2.84,5.64,1.26,6.15S95.25,100,94,99.12c-.9-.62-.73,1.34-2.07,2.66s-9.61-1.72-10.09-3.16C81.46,97.43,81,93.39,81.45,92.75Z"/><path class="cls-11" d="M91,95.13a1.51,1.51,0,0,0-2.09-.56c-.39.22-.76-.48-1.28-.45s-1,.49-1.67.22-.91-.59-1.77-.36-.8,0-1.47-.18"/><path class="cls-12" d="M111.43,72.91h45.22a1.5,1.5,0,0,1,1.5,1.5V101.3a1.29,1.29,0,0,1-1.29,1.29H111.43a1.29,1.29,0,0,1-1.29-1.29V74.21A1.29,1.29,0,0,1,111.43,72.91Z"/><circle class="cls-13" cx="134.19" cy="87.75" r="2.02"/><path class="cls-7" d="M128.05,41.26l.07,2.26c-.91-1.13-2.19-.63-2.66.62s-.4,3.61.67,4.63a2.69,2.69,0,0,0,2.37.73"/><line class="cls-14" x1="158.37" y1="90.63" x2="170.44" y2="90.64"/><line class="cls-14" x1="160.9" y1="83.62" x2="165.72" y2="90.64"/><rect class="cls-3" x="141.17" y="141.58" width="2.48" height="44.92"/><rect class="cls-3" x="130.73" y="184.96" width="23.65" height="2.49"/><rect class="cls-15" x="58.4" y="102.6" width="164.29" height="5.51"/><path class="cls-11" d="M90.05,101.66c.06-.1,1.09-4.42,1.09-4.42"/><path class="cls-11" d="M87.62,101c.14-.55.68-3.56.68-3.56"/><path class="cls-11" d="M85.37,100.42a36.48,36.48,0,0,0,.48-3.87"/><path class="cls-11" d="M83.38,99.73c-.11-.53,0-3.56,0-3.56"/><path class="cls-16" d="M119,119.61H101.67c-5,0-13.29,1.93-14.16,9.2-.76,6.34,2.46,10.92,8.38,18.75,3.66,4.85,27.08,31.32,27.08,31.32l11.34-4-18.75-35h30.88l2.44,36.26,12.18.4s5.14-31.88,6.22-41.38S167,122,164.59,119.58a9.9,9.9,0,0,0-3.9-2v-1.74Z"/><circle class="cls-17" cx="163.69" cy="72.71" r="0.69"/><circle class="cls-17" cx="167.5" cy="76.88" r="0.69"/><path class="cls-7" d="M162.72,75.32A2.84,2.84,0,0,0,165.28,78"/><path class="cls-17" d="M137.67,181.09c0,3.17.77,8.26.76,9,0,.93-.45,1.54-1.9,1.65-1.21.1-25.51,1-26.73,1s-2.07-2-.3-3.26c2.21-1.63,12.28-5.37,14.59-6.22a2.21,2.21,0,0,0,1.45-2.35Z"/><path class="cls-17" d="M149.64,180.4h11.05v2.82c0,1.3,1.15,3.53,1.94,5.12.89,1.77.93,2.74.47,3.5s-1.56,1-2.75,1H145.08c-1.3,0-3.1-1.29-1.91-2.87a43.76,43.76,0,0,1,4.22-3.94c1.19-1,2.05-1.91,2.18-3.18A16,16,0,0,0,149.64,180.4Z"/><path class="cls-17" d="M119,119.61l41.8-3.92v1.86s-9.17-1.72-12.28,5.11Z"/><line class="cls-18" x1="70.13" y1="108.74" x2="70.13" y2="192.54"/><line class="cls-18" x1="201.24" y1="108.4" x2="201.24" y2="192.34"/><path class="cls-19" d="M146.44,140a63.24,63.24,0,0,1,.31-9.08,36.49,36.49,0,0,1,1.62-7.31"/><path class="cls-19" d="M115.56,140a37.28,37.28,0,0,0-4.89-5.83"/><path class="cls-6" d="M134.31,174.91a31.66,31.66,0,0,1,2.42,6.18l-11-.1-1.41-2.57C124.57,178.36,134.31,174.91,134.31,174.91Z"/><polygon class="cls-6" points="149.64 180.4 149.59 176.26 160.1 176.58 159.94 180.41 149.64 180.4"/><polyline class="cls-14" points="142.93 60.84 142.93 69.49 131.7 65.56"/><path class="cls-20" d="M131.78,58.31c2.88,2.14,4.36,2.5,6.06,2.52a6.4,6.4,0,0,0,4.09-1.39c.17.21-2,4.47-4.17,4.44-1.17,0-3.19-1.65-4.71-3.38A6.05,6.05,0,0,1,131.78,58.31Z"/><path class="cls-21" d="M89.18,127.88c-1,5.83,3.36,7.23,5.78,5.47s4.05-8.34.37-10.07C93,122.19,89.89,123.88,89.18,127.88Z"/><path class="cls-21" d="M157,119.11c-5.9.5-6.12,5.11-3.8,7s9.11,1.75,9.83-2.25C163.48,121.35,161,118.76,157,119.11Z"/><line class="cls-14" x1="119.1" y1="112" x2="119.03" y2="108.6"/><path class="cls-22" d="M54.51,37.92,53.24,38"/><path class="cls-23" d="M50.72,38.09C28.79,38.38,15.13,25.89,27,11.77S95.79-6.09,171.3,17.07c24.16,7.42,59.61,9,69.28,9.24"/><path class="cls-22" d="M241.83,26.34l1.27,0"/><polygon class="cls-24" points="62.49 32.21 56.77 26.5 85.29 30.12 62.49 32.21"/><polygon class="cls-25" points="62.49 32.21 61.36 38.8 63.93 35.62 85.29 30.12 62.49 32.21"/><polygon class="cls-26" points="61.36 38.8 66.62 37.78 63.93 35.62 61.36 38.8"/><polygon class="cls-24" points="63.93 35.62 72.32 42.35 85.29 30.12 63.93 35.62"/></svg>