<svg id="Layer_1" data-name="Layer 1" xmlns="http://www.w3.org/2000/svg" xmlns:xlink="http://www.w3.org/1999/xlink" viewBox="0 0 447.9 270.12"><defs><style>.cls-1,.cls-14{fill:#d3eaf2;}.cls-1{opacity:0.48;}.cls-1,.cls-12,.cls-14,.cls-15,.cls-17,.cls-7{isolation:isolate;}.cls-2{fill:#4368b3;}.cls-3{fill:#4272da;}.cls-4{fill:#f7ca7c;}.cls-5{fill:#38455b;}.cls-6{fill:#5793ea;}.cls-7{fill:#5e7499;opacity:0.47;}.cls-10,.cls-19,.cls-21,.cls-8{fill:none;stroke-linecap:round;stroke-linejoin:round;}.cls-10,.cls-8{stroke:#4368b3;}.cls-8{stroke-width:0.44px;}.cls-9{fill:url(#linear-gradient);}.cls-10{stroke-width:0.77px;}.cls-11{fill:#4171da;}.cls-12,.cls-17{fill:#fff;}.cls-12{opacity:0.45;}.cls-13{fill:#6fa0ef;}.cls-14{opacity:0.73;}.cls-15{fill:#2d2da5;opacity:0.33;}.cls-16{fill:#6ea6ff;}.cls-17{opacity:0.5;}.cls-18{fill:#1c2744;}.cls-19{stroke:#1c2744;stroke-width:0.42px;}.cls-20{fill:#fac9c4;}.cls-21{stroke:#38455b;stroke-width:0.49px;}.cls-22{fill:url(#radial-gradient);}</style><linearGradient id="linear-gradient" x1="964.26" y1="575.04" x2="967.37" y2="422.34" gradientTransform="translate(999.28 759.42) rotate(-176.02)" gradientUnits="userSpaceOnUse"><stop offset="0" stop-color="#d1d6e2"/><stop offset="0.37" stop-color="#8bbbff"/><stop offset="0.53" stop-color="#83c3ef"/><stop offset="1" stop-color="#6ed7c3"/></linearGradient><radialGradient id="radial-gradient" cx="5447.44" cy="3.12" r="110.43" gradientTransform="matrix(0.94, -0.34, -0.34, -0.94, -4899.24, 2003.5)" gradientUnits="userSpaceOnUse"><stop offset="0" stop-color="#de47c1"/><stop offset="1" stop-color="#edd3a4"/></radialGradient></defs><title>ludki</title><path class="cls-1" d="M64.5,44.26c-3.6-3.6-4.2-6.8-4.5-16.3C59.5,10.86,48.6.16,33.5.26,10.3.46-2.7,19.66.6,43.16,4.1,68,23.5,88.86,64.4,87.26c31.2-1.2,55.1-31,45.6-46.1-5.6-8.9-14.1-3-25,2.7C76.5,48.26,69.4,49,64.5,44.26Z" transform="translate(-0.1 -0.26)"/><path class="cls-2" d="M39.9,36h-.2a1.85,1.85,0,0,1-1.6-1.9c0-.2.2-.4.4-.3s.4.2.3.4a.9.9,0,0,0,.9,1.1,1.07,1.07,0,0,0,1.1-.9c0-.2.2-.3.4-.3s.3.2.3.4A1.63,1.63,0,0,1,39.9,36Z" transform="translate(-0.1 -0.26)"/><circle class="cls-2" cx="43.81" cy="31.3" r="0.8"/><circle class="cls-2" cx="36.71" cy="30.5" r="0.8"/><path class="cls-3" d="M101,44.86c-19.3,2.3-31.7,4.3-39.6,5.6s-11.3,6.3-13.5,11.2c-2.1,4.6-10,23.7-11.9,31.3-.8,3.1-.3,8.5-.3,8.5l16.9.9,3.5-10.9,2.6,26.7,44.8,11.2,3.8-54.3L121,90.66l16.4,8.8s4.5-3.4,4.5-8.1c.1-6.8-11.8-23.4-16.6-29.6C118.3,52.86,113.9,43.26,101,44.86Z" transform="translate(-0.1 -0.26)"/><path class="cls-4" d="M68.5,20.86s-1.8,15.4-.3,18.4a7,7,0,0,0,4.9,3.8s-.6,6.8-.7,8.2l-.8,7.2L88.3,49c.3-4.2,1.5-15.6,1.5-15.6s2,1.8,3.8-1.4c1.6-2.9.3-6.6-3.2-5.5-1.6.5-1.7,2.9-2,3.5-.1.2-.3-.2-.4-.3s-.5-1-.6-1.3c-.2-1.2.9-3.9.7-6.2-.3-3.1-1.8-3.9-2.8-3.8-3.4.3-11.1,2.3-15,2.6A8,8,0,0,1,68.5,20.86Z" transform="translate(-0.1 -0.26)"/><path class="cls-5" d="M71.4,58.86h-.1c-.1,0-.1-.1-.1-.2l.8-8a.2.2,0,1,1,.4,0l-.8,7.6,13.7-7.6c.1-.1.2,0,.3.1s0,.2-.1.3l-14,7.8Z" transform="translate(-0.1 -0.26)"/><path class="cls-5" d="M56,91.66a.22.22,0,0,1-.2-.2l-1.4-19.4a.2.2,0,1,1,.4,0l1.4,19.4a.22.22,0,0,1-.2.2Z" transform="translate(-0.1 -0.26)"/><path class="cls-5" d="M55,76.36h-.1a.37.37,0,0,1-.1-.3l1.6-3a.22.22,0,0,1,.4.2l-1.6,3A.35.35,0,0,1,55,76.36Z" transform="translate(-0.1 -0.26)"/><path class="cls-5" d="M107.2,75.26c-.1,0-.1,0-.2-.1l-4.7-5.9a.21.21,0,1,1,.3-.3l4.7,5.9a.19.19,0,0,1,0,.3A.1.1,0,0,1,107.2,75.26Z" transform="translate(-0.1 -0.26)"/><path class="cls-5" d="M90.3,30.46c-.1,0-.1,0-.2-.1s0-.2,0-.3,1.3-.9,1.4-1.9a.2.2,0,0,1,.4,0,4.18,4.18,0,0,1-1.6,2.2Z" transform="translate(-0.1 -0.26)"/><path class="cls-5" d="M91.8,31.46h0a.22.22,0,0,1-.2-.2,2,2,0,0,0-.6-1.4.21.21,0,0,1,.3-.3,2.34,2.34,0,0,1,.7,1.7A.22.22,0,0,1,91.8,31.46Z" transform="translate(-0.1 -0.26)"/><path class="cls-6" d="M73.9,28.16h0a1.21,1.21,0,0,1,1.1,1.3L74.6,33a1.2,1.2,0,0,1-1.3,1h-.1a1.2,1.2,0,0,1-1-1.3l.4-3.4A1.22,1.22,0,0,1,73.9,28.16Z" transform="translate(-0.1 -0.26)"/><path class="cls-5" d="M73.2,36.76a1.27,1.27,0,0,1-.6-.1,2.41,2.41,0,0,1-1.8-1.4.22.22,0,1,1,.4-.2,1.66,1.66,0,0,0,1.5,1.1,3.22,3.22,0,0,0,3-1,.21.21,0,0,1,.3.3A3.54,3.54,0,0,1,73.2,36.76Z" transform="translate(-0.1 -0.26)"/><path class="cls-5" d="M80.4,27.56c-.1,0-.1,0-.2-.1a1.85,1.85,0,0,0-1.8-.7c-.3.1-.6.2-.7.5a.22.22,0,0,1-.4-.2c.1-.4.5-.6,1-.7a2.25,2.25,0,0,1,2.2.9.19.19,0,0,1,0,.3Z" transform="translate(-0.1 -0.26)"/><path class="cls-5" d="M71.4,27.06c-.1,0-.1,0-.2-.1a1.58,1.58,0,0,0-1.2-.5.55.55,0,0,0-.5.3c0,.1-.2.1-.3.1a.37.37,0,0,1-.1-.3,1.24,1.24,0,0,1,.8-.6,2,2,0,0,1,1.6.6.19.19,0,0,1,0,.3C71.5,27,71.5,27.06,71.4,27.06Z" transform="translate(-0.1 -0.26)"/><path class="cls-5" d="M80.4,24.46h0a10,10,0,0,0-2.7-.4.2.2,0,1,1,0-.4h0a8.23,8.23,0,0,1,2.8.5.19.19,0,0,1,.1.3C80.6,24.36,80.5,24.46,80.4,24.46Z" transform="translate(-0.1 -0.26)"/><path class="cls-5" d="M69.3,24a.35.35,0,0,1-.2-.1.37.37,0,0,1,.1-.3,6,6,0,0,1,2.3-.2c.1,0,.2.1.2.3s-.1.2-.3.2a4.09,4.09,0,0,0-2.1.1Z" transform="translate(-0.1 -0.26)"/><path class="cls-4" d="M68.3,26.16c-1-.2-1.9,1.2-2,2.2-.2,1.8.6,3.3,1.5,3.5S68.3,26.16,68.3,26.16Z" transform="translate(-0.1 -0.26)"/><path class="cls-7" d="M73.1,43.06a12.38,12.38,0,0,0,7.9-1.2,8.32,8.32,0,0,1-8.2,5.2Z" transform="translate(-0.1 -0.26)"/><path class="cls-7" d="M87,19.66c1.5,1.3,1.1,5,1,4.6-.2-2.5-2.7-4.6-2.7-4.6-6.2,1.3-7.2,1.9-10.3,2.4a10.08,10.08,0,0,1-6.3-1,32.54,32.54,0,0,0,5.1-.7c3.4-.6,11.9-2,12.2-1.9S87,19.66,87,19.66Z" transform="translate(-0.1 -0.26)"/><path class="cls-5" d="M88.2,29.86h-.4c-.4,0-.6-.2-.6-.9a20,20,0,0,1,.4-3.7c.4-2.4.7-4.1-1.4-6.5,0-.1-.1-.1-.1-.2-.9.1-2.2.3-3.8.5-2.3.3-4.7.7-7,1.2-4.1.8-7.7,1.5-9.4.8-1.9-.8-2.9-2.8-2.6-5.2.5-4.2,4.5-8.9,11.2-10,2.8-.5,3.1,1,3.5,2.4s.5,2.5,2.5,2.6c4.5.4,5-1.8,5-1.8a.2.2,0,0,1,.4,0c0,.1-.5,2.5-5.4,2.1-2.3-.2-2.6-1.7-2.9-3s-.5-2.5-3-2.1c-6.4,1.1-10.3,5.7-10.8,9.6a4.3,4.3,0,0,0,2.3,4.8c1.5.7,5.2,0,9.1-.8,2.3-.4,4.7-.9,7-1.2,1.5-.2,2.7-.3,3.6-.4a1.53,1.53,0,0,1-.1-1.3,1.27,1.27,0,0,1,1.3-.7h0a1.43,1.43,0,0,1,1.3.7.76.76,0,0,1,0,.8c-.2.3-.7.6-1.9.8,2.1,2.6,1.8,4.5,1.4,6.8a17.94,17.94,0,0,0-.4,3.6c0,.4.1.4.2.4H88a1.19,1.19,0,0,0,.2-.5,3.11,3.11,0,0,1,3.6-2.8,24.18,24.18,0,0,1,.8-5.5,28.32,28.32,0,0,1,.9-2.7c.6-1.5,1-2.5.4-3.7-2-3.8-8.1-2.8-8.2-2.8a.2.2,0,1,1,0-.4c.3,0,6.5-1,8.6,3,.7,1.4.3,2.5-.3,4.1-.3.8-.6,1.6-.9,2.6a20.17,20.17,0,0,0-.8,5.6c0,.1,0,.1-.1.2a.14.14,0,0,1-.2,0,2.58,2.58,0,0,0-3.3,2.4c-.1.5-.2.7-.4.8C88.4,29.86,88.3,29.86,88.2,29.86Zm-1.1-13.3a1.23,1.23,0,0,0-1,.5,1,1,0,0,0,.2,1c1.1-.2,1.7-.3,1.8-.6,0-.1.1-.2-.1-.4a.94.94,0,0,0-.9-.5Z" transform="translate(-0.1 -0.26)"/><path class="cls-5" d="M93.5,32.46h-.1a.37.37,0,0,1-.1-.3,5.07,5.07,0,0,0,.8-3.5c-.3-1.4-.9-2-2.1-2.2a.2.2,0,0,1,0-.4,2.68,2.68,0,0,1,2.5,2.5,5.28,5.28,0,0,1-.8,3.8A.31.31,0,0,1,93.5,32.46Z" transform="translate(-0.1 -0.26)"/><path class="cls-4" d="M137.3,99.46l-16.4-8.8c-6.1,7.6-15.3,18.3-15.3,18.3s-2.6-6-3.4-7.1-8.7-.9-11-.1-1.7,1.8-1.2,2.3,4,0,4,0a26.45,26.45,0,0,0-2.9,2.7,1.41,1.41,0,0,0,.4,2.2s-.9,1.3-.5,2.1a1.32,1.32,0,0,0,1.1.8s-1,1.8-.1,2.4,1.9-.3,2.4-.8,3.7-2,3.7-2,.7,5.9,2.8,8,5.1,1.4,8.6-.7C132.7,105,137.3,99.46,137.3,99.46Z" transform="translate(-0.1 -0.26)"/><path class="cls-8" d="M93.7,104.06a8.74,8.74,0,0,1,4.4-.7" transform="translate(-0.1 -0.26)"/><path class="cls-8" d="M91.3,108.76c1.4-1,3.9-3.7,6.8-3" transform="translate(-0.1 -0.26)"/><path class="cls-8" d="M91.9,111.66c3-2.2,4.4-4,5.6-3.4" transform="translate(-0.1 -0.26)"/><path class="cls-9" d="M94.5,254.66l8.9-125.3-44.8-11.2s-17.3,49.4-17.6,72.7c-.3,17.9-1.1,47.5-.2,63l18,1.3s2.6-42.8,5.6-60.6c1.6-9.5,8.1-36.6,8.1-36.6s2.8,77.4,4.1,97.1l18,3.8Z" transform="translate(-0.1 -0.26)"/><path class="cls-10" d="M71.2,155.86" transform="translate(-0.1 -0.26)"/><path class="cls-10" d="M77.8,139.16" transform="translate(-0.1 -0.26)"/><polygon class="cls-11" points="32.81 128.3 31.41 147.1 63.51 143.8 64.21 124.2 32.81 128.3"/><path class="cls-4" d="M52.8,147.56c-2,.3-10.4.7-10.7.1-1.6-3.4-2.9-10.7-3.2-13.4s-3.3-28.3-3.3-32.8l16.9.9c-.1,9.3-1.3,27.2-.5,29.2,1.3,2.9,4.8,5.2,6.1,5.9s1,1.5,0,1.6a15.94,15.94,0,0,1-5-.9c-.5-.1-.5,2.3-.3,3.7.2,1.7.5,3.3.5,3.3s2.7-.8,3.1-.1-.2,1.4-1.1,1.7A15.71,15.71,0,0,1,52.8,147.56Z" transform="translate(-0.1 -0.26)"/><path class="cls-2" d="M50.4,147.86a.35.35,0,0,1-.2-.1,24.14,24.14,0,0,1-.9-4.1c0-.1.1-.2.2-.3s.2.1.3.2a23.65,23.65,0,0,0,.9,4q0,.15-.3.3Z" transform="translate(-0.1 -0.26)"/><path class="cls-2" d="M47.4,148.26a.22.22,0,0,1-.2-.2c-.3-1.2-1-3.8-1-3.8l.4-.1s.7,2.6,1,3.8c0,.1,0,.2-.2.3Z" transform="translate(-0.1 -0.26)"/><path class="cls-2" d="M44.7,148.06a.22.22,0,0,1-.2-.2l-1.1-3.5.4-.1,1.1,3.5c.1.2,0,.3-.2.3Z" transform="translate(-0.1 -0.26)"/><path class="cls-2" d="M72.4,158.66a.22.22,0,0,1-.2-.2l-.9-13.1a.2.2,0,1,1,.4,0l.9,13.1a.22.22,0,0,1-.2.2Z" transform="translate(-0.1 -0.26)"/><path class="cls-5" d="M94.5,254.66c.1,5.3.2,9.7.2,10.9,0,1.6-.5,2.6-1.9,2.7,0,0-26.1.5-27.4.6-2.2,0-3-3.1-.2-4.3,1.6-.7,6.7-3.4,9.2-4.7s2.1-4.8,2.1-4.8Z" transform="translate(-0.1 -0.26)"/><path class="cls-5" d="M58.7,255.06c-.4,5.3-.7,9.7-.8,10.9-.2,1.6-.7,2.5-2.2,2.5,0,0-26.1-1.8-27.3-1.9-2.2-.2-2.8-3.4.2-4.3,1.7-.6,7-2.8,9.6-3.8s2.5-4.6,2.5-4.6Z" transform="translate(-0.1 -0.26)"/><path class="cls-12" d="M69.9,29.56c1.5,1.5,0,2.7-.9,2.6s-2.3-1.3-1.6-2.3A1.65,1.65,0,0,1,69.9,29.56Z" transform="translate(-0.1 -0.26)"/><path class="cls-12" d="M81.1,30.36c2.1,2.1,0,3.8-1.3,3.7s-3.2-1.7-2.2-3.2A2.3,2.3,0,0,1,81.1,30.36Z" transform="translate(-0.1 -0.26)"/><path class="cls-5" d="M144.6,92.76h0l-23.7-2a.2.2,0,0,1,0-.4l23.7,2a.2.2,0,0,1,0,.4Z" transform="translate(-0.1 -0.26)"/><path class="cls-5" d="M52.5,102.56h0l-19.7-7a.22.22,0,0,1,.2-.4l19.6,7a.19.19,0,0,1,.1.3C52.7,102.56,52.6,102.56,52.5,102.56Z" transform="translate(-0.1 -0.26)"/><path class="cls-13" d="M342.1,69.56s9.7-8.5,12.2-10.8c4.4-3.9,10.3-5,14.7-4.8s33.5,2.4,37.2,3.1a21.84,21.84,0,0,1,10,4.7c1.4,1.1,10.6,9,10.6,9l-11.2,17.9-8.7-5.9-.5,50-48.1,6.8,2.3-60-7.1,5.5Z" transform="translate(-0.1 -0.26)"/><path class="cls-4" d="M416.8,87.06l11.7,9.7s-11.9,16.4-14.6,17.4c-8.1,3.1-10.6,3.8-9,7,.6,1.2.1,2.3.9,3.9.6,1.2.9,1.4,1.2,2.1.3.9-.2,1.6.4,2.6.4.7.7.6,1.3,1.2s.4,1.4,1.4,1.9c1.9.9,3.7-.7,7.1-3.3,7-5.3,24.5-23.7,28.5-29,3.7-4.7,2.4-8.6-.2-11.8s-19-17.2-19-17.2Z" transform="translate(-0.1 -0.26)"/><path class="cls-14" d="M370.3,54.26c-3.2-.1-8.5-.4-12,2a93.05,93.05,0,0,0-11.2,8.9C343.7,57,345.6,49,353.4,37c15.3-23.8,65.2-25.1,80.1-2.6s-.1,51.3-28.7,43c-16.1-4.7-14.2-21.8-14.2-21.8l-19-1.4Z" transform="translate(-0.1 -0.26)"/><path class="cls-4" d="M372.2,28.66c-1.1,5.5-2.4,13.9-.9,17.4s6.7,3.7,6.7,3.7l-1.1,14,13.3-5.1.6-16.9s1.3,1.3,3-.3c1.5-1.4,2.2-4.3.7-5.8-1.9-1.8-3.7.4-3.7.4s.4-2.7-1-3.9-4.5.5-8.6-1.2c-4.3-1.9-4.8-5-6.7-5.5C373.3,25.36,372.2,28.66,372.2,28.66Z" transform="translate(-0.1 -0.26)"/><path class="cls-15" d="M378,49.86a15.4,15.4,0,0,0,5.9-2.1,7.16,7.16,0,0,1-2.9,4.5,4.8,4.8,0,0,1-3.3.9Z" transform="translate(-0.1 -0.26)"/><path class="cls-15" d="M372.8,27.36a9.35,9.35,0,0,1,4.6,3,8.89,8.89,0,0,0,9.5,1.6,21,21,0,0,1-5.6-.9c-2-.8-4.3-4-5.6-4.8s-1.7-.6-1.7-.6a3.07,3.07,0,0,0-.7.8A4.42,4.42,0,0,0,372.8,27.36Z" transform="translate(-0.1 -0.26)"/><circle class="cls-5" cx="372.81" cy="35.1" r="0.7"/><circle class="cls-5" cx="380.71" cy="36.2" r="0.7"/><path class="cls-16" d="M375.5,41.46h0a1.09,1.09,0,0,1-.9-1.2l.5-2.8a1,1,0,0,1,1.2-.9h.1a1,1,0,0,1,.9,1.2l-.5,2.8A1.19,1.19,0,0,1,375.5,41.46Z" transform="translate(-0.1 -0.26)"/><path class="cls-17" d="M381.7,38.06a1.66,1.66,0,0,0-1,3c.8.6,2.9.4,3-1C383.7,39.26,383,37.86,381.7,38.06Z" transform="translate(-0.1 -0.26)"/><path class="cls-17" d="M370.4,36.16a1.66,1.66,0,0,0-1,3c.8.6,2.9.4,3-1A1.83,1.83,0,0,0,370.4,36.16Z" transform="translate(-0.1 -0.26)"/><path class="cls-5" d="M375.5,44.86a1.27,1.27,0,0,1-.6-.1,2,2,0,0,1-1.5-1.6.2.2,0,0,1,.4,0,1.38,1.38,0,0,0,1.2,1.2,2,2,0,0,0,2-.7.21.21,0,0,1,.3.3A2.14,2.14,0,0,1,375.5,44.86Z" transform="translate(-0.1 -0.26)"/><path class="cls-5" d="M390.3,38.36h0c-.2,0-.2-.2-.2-.3s1-3.9-.3-5.5A1.85,1.85,0,0,0,388,32c-2.8.3-6.7.1-9-2a14.54,14.54,0,0,1-1.7-1.9c-1.3-1.5-2.2-2.5-4.2-2.5a.2.2,0,0,1,0-.4c2.2-.1,3.3,1.2,4.5,2.6a14.06,14.06,0,0,0,1.7,1.8c2.2,2,5.9,2.1,8.6,1.9a2.44,2.44,0,0,1,2.2.8c1.5,1.7.5,5.7.4,5.9S390.4,38.36,390.3,38.36Z" transform="translate(-0.1 -0.26)"/><path class="cls-5" d="M391.6,39a.2.2,0,0,1,0-.4s1.7-.2,1.9-1.2c0-.1.1-.2.3-.2s.2.1.2.3c-.4,1.2-2.3,1.4-2.4,1.5Z" transform="translate(-0.1 -0.26)"/><path class="cls-5" d="M393.2,40.26h0a.22.22,0,0,1-.2-.2,2.21,2.21,0,0,0-.4-1.3.21.21,0,0,1,.3-.3,2.32,2.32,0,0,1,.5,1.7A.35.35,0,0,1,393.2,40.26Z" transform="translate(-0.1 -0.26)"/><path class="cls-5" d="M395.1,40.06h0c-.2-.1-.2-.2-.2-.3a9.92,9.92,0,0,0,.4-1.9,2.42,2.42,0,0,0-1.7-2.5c-1.4-.4-2.6,1.1-2.7,1.2a.21.21,0,0,1-.3-.3,3.08,3.08,0,0,1,3.1-1.3,2.72,2.72,0,0,1,2,2.9,6.2,6.2,0,0,1-.4,2A.22.22,0,0,1,395.1,40.06Z" transform="translate(-0.1 -0.26)"/><path class="cls-5" d="M372.2,28.66c-.1,0-.1,0-.2-.1a10.59,10.59,0,0,0-1-1.2c-1.1-1.3-2.4-2.8-2.2-4.6.1-1.4,1-2.7,2.7-4.1,4.4-3.6,11.2-5.2,13.6-3.9a1.21,1.21,0,0,1,.7,1.3,4.4,4.4,0,0,1-.2,1c-.4,1.3-.5,2.2.5,2.6a.22.22,0,0,1-.2.4c-1.6-.5-1.1-2-.8-3.1a3.71,3.71,0,0,0,.2-.9.75.75,0,0,0-.5-.8c-2-1.1-8.6.2-13.1,3.9-1.6,1.3-2.4,2.5-2.5,3.8-.2,1.7,1.1,3.1,2.1,4.3a11.32,11.32,0,0,1,1,1.3c.1.1,0,.2-.1.3C372.3,28.66,372.2,28.66,372.2,28.66Z" transform="translate(-0.1 -0.26)"/><path class="cls-5" d="M374,32.66h-.1a1.8,1.8,0,0,0-1.1-.3.22.22,0,0,1-.2-.4c.6-.2,1.4.3,1.5.3a.37.37,0,0,1,.1.3C374.2,32.66,374.1,32.66,374,32.66Z" transform="translate(-0.1 -0.26)"/><path class="cls-5" d="M382.1,33.76H382a2,2,0,0,0-1.7-.2.22.22,0,0,1-.2-.4,2.36,2.36,0,0,1,2,.3.37.37,0,0,1,.1.3Z" transform="translate(-0.1 -0.26)"/><path class="cls-5" d="M391.9,44.66a1.73,1.73,0,0,1-1.3-.5.21.21,0,0,1,.3-.3c.4.5,1.2.5,2.3.1,2.9-1,6.7-4.3,6.8-6.6.1-1.9-1.1-2.4-2.2-2.7-.7-.2-1.4-.5-1.5-1.1a2,2,0,0,1,.5-1.5c.4-.6.6-1-.1-1.7a.21.21,0,0,1,.3-.3,1.52,1.52,0,0,1,.1,2.3,1.37,1.37,0,0,0-.4,1.2c.1.4.5.5,1.2.8,1.1.4,2.6.9,2.4,3.1-.1,2.5-4.1,6-7.1,7A3,3,0,0,1,391.9,44.66Z" transform="translate(-0.1 -0.26)"/><path class="cls-5" d="M376.9,64.06h-.1c-.1,0-.1-.1-.1-.2l.5-7.9a.2.2,0,0,1,.4,0l-.5,7.5,10.5-4.1a.22.22,0,0,1,.2.4l-10.9,4.3Z" transform="translate(-0.1 -0.26)"/><path class="cls-4" d="M342.8,70.76l-10.1,8.7s-7-17.2-7.2-20.1c-.5-7.7-3.7-11-8.2-11s-6.1,3.5-6.3,9.5c-.2,8,8.7,30.8,12,36.5s8.1,5,10.7,4.6c4.2-.7,19.7-13.9,19.7-13.9Z" transform="translate(-0.1 -0.26)"/><path class="cls-4" d="M325.6,59.36a23,23,0,0,1,.8-3.7c.5-1.1,1-2.2,6.2-7,1.9-1.8,0-2.7-2.2-1.4-1.7,1-3.2,1.4-3.7.2-.5-1.5-.2-7.6.3-9.1.4-1.3,2.4-4.6,2.9-6.1s-1.1-1.6-2-.7-.7,0-2.4,1.1c-.5.3-2.6,2.9-3.7,3.2-.4.2-.9.2-1.7,1.6-.4.7-2,.1-3.7,1.3-3.3,2.3-4.8,7.5-5.3,17.3-.2,4.3,4.2,4.6,7.5,4.5A32.37,32.37,0,0,0,325.6,59.36Z" transform="translate(-0.1 -0.26)"/><path class="cls-18" d="M323.8,42.26h0a.22.22,0,0,1-.2-.2,17.93,17.93,0,0,1,1.2-5.8c.3-.7,2.9-4.4,3-4.6a.22.22,0,0,1,.4.2c-.9,1.3-2.8,4-3,4.5a20.57,20.57,0,0,0-1.1,5.7C324,42.26,323.9,42.26,323.8,42.26Z" transform="translate(-0.1 -0.26)"/><path class="cls-18" d="M318.9,55.86h0a.22.22,0,0,1-.2-.2v-.2c.2-1.9.7-5.9,6.1-7.8a.37.37,0,0,1,.3.1c.1.1,0,.2-.1.3a8,8,0,0,0-5.8,7.4v.2C319.1,55.76,319,55.86,318.9,55.86Z" transform="translate(-0.1 -0.26)"/><path class="cls-19" d="M322.7,36.76a21.18,21.18,0,0,0-1.4,5.5" transform="translate(-0.1 -0.26)"/><path class="cls-18" d="M316.4,43.86a.22.22,0,0,1-.2-.2c0-.1,0-.2.2-.3a36.76,36.76,0,0,1,8.5-.9.2.2,0,1,1,0,.4h0a43.93,43.93,0,0,0-8.5,1Z" transform="translate(-0.1 -0.26)"/><path class="cls-3" d="M323.4,52.56a.73.73,0,0,1-.6-.2,1.44,1.44,0,0,1-.6-1l-2.6-10.2a3.62,3.62,0,0,1,1.2-3.1l4.8-2.7c.1,0,.2-.1.3-.1a1.39,1.39,0,0,1,1.1.2,1.6,1.6,0,0,1,.7.9l2.9,10.9a2.23,2.23,0,0,1-1,2.4l-5.2,2.6c-.1,0-.2.1-.3.1h0A1.45,1.45,0,0,1,323.4,52.56Zm2.8-15.9-5.2,2.7a.63.63,0,0,0-.3.8l2.9,10.9v.1h.1l5.2-2.6a.63.63,0,0,0,.3-.8l-3-11.1Z" transform="translate(-0.1 -0.26)"/><path class="cls-20" d="M329.5,49l-5.2,2.6a.76.76,0,0,1-1.1-.5L320.3,40a1,1,0,0,1,.6-1.2l5.5-2.8a.7.7,0,0,1,1,.4l2.9,11.1A1.65,1.65,0,0,1,329.5,49Z" transform="translate(-0.1 -0.26)"/><ellipse class="cls-3" cx="326.69" cy="48.1" rx="0.5" ry="0.9" transform="translate(-3.29 62.45) rotate(-10.91)"/><path class="cls-4" d="M321.9,35.86a25.86,25.86,0,0,1,4.1-.1c.6.2,1,1-1,1.9-.9.4-3.5.6-4.7,1.5a7.06,7.06,0,0,0-1.3,3.4" transform="translate(-0.1 -0.26)"/><path class="cls-18" d="M318.9,42.66h0c-.2,0-.2-.1-.2-.3a10.2,10.2,0,0,1,1.4-3.5,10.75,10.75,0,0,1,3.3-1.2,4.58,4.58,0,0,0,1.5-.4c1.3-.6,1.4-1,1.4-1.2a.32.32,0,0,0-.3-.3,20.43,20.43,0,0,0-4,.2.2.2,0,0,1,0-.4,28.74,28.74,0,0,1,4.2-.1.86.86,0,0,1,.6.7c0,.4-.2,1-1.6,1.6a5.29,5.29,0,0,1-1.6.4,7.14,7.14,0,0,0-3.1,1.1,9.27,9.27,0,0,0-1.3,3.3C319,42.66,319,42.66,318.9,42.66Z" transform="translate(-0.1 -0.26)"/><path class="cls-4" d="M318.2,38.06s3.4-.6,4.1-.6c1,0,1.1.8.3,1.4s-4.1.7-4.7,1.4a9.77,9.77,0,0,0-1.3,2.5" transform="translate(-0.1 -0.26)"/><path class="cls-18" d="M316.5,43h0c-.2-.1-.2-.2-.2-.3a8.38,8.38,0,0,1,1.3-2.5c.4-.5,1.5-.7,2.7-.9a6.69,6.69,0,0,0,2.1-.6,1,1,0,0,0,.5-.8c-.1-.2-.3-.2-.6-.2-.6,0-4,.6-4,.6a.2.2,0,0,1,0-.4c.1,0,3.4-.6,4.1-.6h0a1.12,1.12,0,0,1,1,.5,1.34,1.34,0,0,1-.6,1.3,5.3,5.3,0,0,1-2.2.6,6.09,6.09,0,0,0-2.5.8,10.11,10.11,0,0,0-1.2,2.4A.76.76,0,0,1,316.5,43Z" transform="translate(-0.1 -0.26)"/><path class="cls-5" d="M406.9,83.06h-.1l-4.5-3.4a.21.21,0,0,1,.3-.3l4.5,3.4a.19.19,0,0,1,0,.3C407,83,407,83.06,406.9,83.06Z" transform="translate(-0.1 -0.26)"/><path class="cls-18" d="M412.2,130.86h-.1a8.86,8.86,0,0,1-1.5-1.8,2.72,2.72,0,0,1-.3-1.4,4.91,4.91,0,0,0-.1-1.1,5.42,5.42,0,0,0-.6-1.1,4.18,4.18,0,0,1-.7-1.5,7.5,7.5,0,0,1-.1-1.2,1.72,1.72,0,0,0-.2-.8,5.94,5.94,0,0,0-.4-.8,3.09,3.09,0,0,1-.5-1.9.2.2,0,1,1,.4,0,3.1,3.1,0,0,0,.4,1.6,3.92,3.92,0,0,1,.4.9,2.17,2.17,0,0,1,.2,1,6.61,6.61,0,0,0,.1,1.1,2.62,2.62,0,0,0,.6,1.3,4.4,4.4,0,0,1,.6,1.2,2,2,0,0,1,.1,1.3,1.68,1.68,0,0,0,.3,1.1,5.64,5.64,0,0,0,1.4,1.7.19.19,0,0,1,0,.3C412.3,130.86,412.3,130.86,412.2,130.86Z" transform="translate(-0.1 -0.26)"/><path class="cls-3" d="M361.4,256.56c-5.8-51.5-3.2-116.9-3.2-116.9l48.1-6.8s4.8,40.3,12.4,64.2c7.9,24.9,22.1,57.8,22.1,57.8l-19.2,1.4s-22.2-27.9-38.7-74.5c0,0-2.1,43.9-2.4,75.9Z" transform="translate(-0.1 -0.26)"/><path class="cls-5" d="M360.3,81.36h0c-.1,0-.2-.1-.2-.3l.2-6.3.2-2.9c0-.1.1-.2.3-.2s.2.1.2.3l-.2,2.9-.2,6.3C360.6,81.26,360.5,81.36,360.3,81.36Z" transform="translate(-0.1 -0.26)"/><path class="cls-21" d="M363.2,72.06" transform="translate(-0.1 -0.26)"/><path class="cls-21" d="M360.7,75.06" transform="translate(-0.1 -0.26)"/><path class="cls-8" d="M134.5,91.66" transform="translate(-0.1 -0.26)"/><path class="cls-1" d="M233.9,33.86c19.9-15.5,49.5-8.4,60,12,8.7,16.8-6.8,43-29.9,39.1-15.3-2.6-23.4,3.1-29.8,13.2-10.1,16-42.9,15.3-57.5-1.1-20.9-23.5-1.5-25.7,2.1-8.9,1.8,8.3,11.9-6,22.5-12C217.3,66.86,208.2,53.76,233.9,33.86Z" transform="translate(-0.1 -0.26)"/><path class="cls-2" d="M272.7,77.86a1.77,1.77,0,0,1-1.8-1.7.4.4,0,0,1,.8,0,1,1,0,0,0,1,1,1.08,1.08,0,0,0,1-1,.4.4,0,0,1,.8,0A2,2,0,0,1,272.7,77.86Z" transform="translate(-0.1 -0.26)"/><path class="cls-2" d="M268.6,73.16h-.4a2.51,2.51,0,0,1-1.9-1,.36.36,0,0,1,.6-.4,2,2,0,0,0,1.3.6,1.83,1.83,0,0,0,1.6-.4.35.35,0,0,1,.5.5C270,73.06,269.3,73.16,268.6,73.16Z" transform="translate(-0.1 -0.26)"/><path class="cls-2" d="M402.1,67.66a1.77,1.77,0,0,1-1.8-1.7.4.4,0,1,1,.8,0,1,1,0,0,0,1,1,1.08,1.08,0,0,0,1-1,.43.43,0,0,1,.4-.4h0a.43.43,0,0,1,.4.4A2,2,0,0,1,402.1,67.66Z" transform="translate(-0.1 -0.26)"/><circle class="cls-2" cx="405.51" cy="62.9" r="0.8"/><circle class="cls-2" cx="398.31" cy="62" r="0.8"/><path class="cls-2" d="M276.7,73.06h-.4a2.51,2.51,0,0,1-1.9-1,.36.36,0,0,1,.6-.4,2,2,0,0,0,1.3.6,1.83,1.83,0,0,0,1.6-.4.35.35,0,0,1,.5.5A1.94,1.94,0,0,1,276.7,73.06Z" transform="translate(-0.1 -0.26)"/><path class="cls-4" d="M214.6,91.56c4.1,8.3,11.8,13.9,20.3,17.3a45.35,45.35,0,0,0,6.3,1.8,44.4,44.4,0,0,0,23.1-.9l.5-.1c9.1-.8,13-2,15-5.1,1.1-1.7.5-3.1,1-3.5,1.3-.8,1.3-1.3,1.4-1.7.3-1,2.6-3.1,2.8-3.6.9-1.6.1-1.4.9-2.3s.6-2.3-.7-1.8-4.3,2.5-5.5,2.9c-1.4.5-7,1.1-8.4.6-1.1-.4-.8-1.7.1-3.4,1.1-2.1.3-3.7-1.4-2-4.8,4.7-5.2,5.5-6.2,6a14.31,14.31,0,0,1-3.4.9h0c-15.3,4.5-28-3-32.2-10.9-3-5.7-5.7-19.8-5.7-19.8l-13.7,4.8C209,71.06,212.2,86.66,214.6,91.56Z" transform="translate(-0.1 -0.26)"/><path class="cls-18" d="M276.6,98.06a.2.2,0,1,1,0-.4,20.72,20.72,0,0,0,5.2-1.3c.5-.2,2.8-2,4-2.9.1-.1.2,0,.3,0s0,.2,0,.3-3.5,2.7-4.1,3a22.51,22.51,0,0,1-5.4,1.3Z" transform="translate(-0.1 -0.26)"/><path class="cls-18" d="M264.2,103.06a.2.2,0,1,1,0-.4h.2c1.7-.3,5.2-.8,6.6-5.6,0-.1.1-.2.2-.1s.2.1.1.2a7.77,7.77,0,0,1-6.9,5.9Z" transform="translate(-0.1 -0.26)"/><path class="cls-18" d="M276.5,100.36a.2.2,0,1,1,0-.4,23,23,0,0,0,4.9-1.5c.1-.1.2,0,.3.1s0,.2-.1.3a26.54,26.54,0,0,1-5.1,1.5Z" transform="translate(-0.1 -0.26)"/><path class="cls-18" d="M275.4,105h0a.22.22,0,0,1-.2-.2,38.3,38.3,0,0,0,.5-7.8.2.2,0,0,1,.4,0,39.64,39.64,0,0,1-.5,7.9C275.6,105,275.5,105,275.4,105Z" transform="translate(-0.1 -0.26)"/><path class="cls-4" d="M282.4,99.36a23.87,23.87,0,0,0,0-3.8c-.2-.5-1-.8-1.7,1-.3.9-.4,3.3-1.2,4.4a7.46,7.46,0,0,1-3.1,1.4" transform="translate(-0.1 -0.26)"/><path class="cls-18" d="M276.4,102.66a.35.35,0,0,1-.2-.1c0-.1,0-.2.1-.2a8.7,8.7,0,0,0,3-1.3,8.24,8.24,0,0,0,.9-2.9,10.63,10.63,0,0,1,.3-1.4c.5-1.3,1-1.6,1.4-1.6a.75.75,0,0,1,.7.5,17,17,0,0,1,0,3.9.2.2,0,0,1-.4,0,22.26,22.26,0,0,0,0-3.7.45.45,0,0,0-.3-.3h0c-.1,0-.5.1-1,1.3a10.63,10.63,0,0,0-.3,1.4,8.08,8.08,0,0,1-1,3.1,14,14,0,0,1-3.2,1.3Z" transform="translate(-0.1 -0.26)"/><path class="cls-4" d="M280.5,102.86s.4-3.2.4-3.8c0-1-.8-1-1.3-.2s-.4,3.8-1.1,4.4a12.64,12.64,0,0,1-2.2,1.3" transform="translate(-0.1 -0.26)"/><path class="cls-18" d="M276.2,104.76c-.1,0-.1,0-.2-.1a.37.37,0,0,1,.1-.3,10.17,10.17,0,0,0,2.2-1.2,5.37,5.37,0,0,0,.6-2.3,5,5,0,0,1,.5-2.1,1.07,1.07,0,0,1,1.1-.6c.2,0,.5.2.5.9s-.4,3.7-.4,3.8a.2.2,0,0,1-.4,0s.4-3.2.4-3.7a.6.6,0,0,0-.3-.6c-.2,0-.4.1-.7.5a6.09,6.09,0,0,0-.4,1.9,5.78,5.78,0,0,1-.7,2.5,5.5,5.5,0,0,1-2.3,1.3Z" transform="translate(-0.1 -0.26)"/><path class="cls-13" d="M219.6,195.26c7.4-52.8-2.9-82.6-2.9-82.6L180.8,116s-10.3,21.9-11.6,33.2c-2.1,18,2.7,36.1-2.2,51.1-8,24.6-16.2,48.7-16.2,48.7l14.3,4.2s16.7-26.4,26.5-52.2c4.3-11.2,4.9-13.4,6.6-17.7,0,0,2.4,36.9,4.9,71.5l14.8-.4C217.8,254.46,217.2,212.66,219.6,195.26Z" transform="translate(-0.1 -0.26)"/><path class="cls-22" d="M160,95.36s2.7-21.8,4.7-29.4c1.6-5.9,3.4-9.2,15.3-11.4,7.7-1.4,24.3-2.7,30.3-3,8.1-.3,10.5,3.3,12.6,9.5,1.3,3.9,5.1,18.5,5.1,18.5L219.4,82l-2.9,28.3-35.9,3.3s-.6-20-.8-22.6Z" transform="translate(-0.1 -0.26)"/><path class="cls-4" d="M161.6,95.06c-.2,1.7-.4,3.5-.5,4.9a35.53,35.53,0,0,0,2.7,18.5l12.2,27.9,12-6.4-9.4-22.3a36.25,36.25,0,0,1-2.5-19.5l.9-6.3Z" transform="translate(-0.1 -0.26)"/><path class="cls-5" d="M218.7,89.26h0a.22.22,0,0,1-.2-.2l.8-6.8a.1.1,0,0,1,.1-.1,10.35,10.35,0,0,0,2.7-7.2c-.3-4.2-3.4-7.4-6.2-7.9a.22.22,0,0,1-.2-.2,8.51,8.51,0,0,1,.6-2.5.22.22,0,0,1,.4.2,5.92,5.92,0,0,0-.5,2.1c2.8.7,6,4,6.3,8.3a10.7,10.7,0,0,1-2.7,7.5l-.8,6.8C218.9,89.16,218.8,89.26,218.7,89.26Z" transform="translate(-0.1 -0.26)"/><path class="cls-5" d="M198.8,87.56c-.1,0-.1,0-.2-.1s0-.2.1-.3a9.77,9.77,0,0,0,4.9-7.4.2.2,0,1,1,.4,0c-.2,3-2,5.7-5.1,7.8Z" transform="translate(-0.1 -0.26)"/><path class="cls-5" d="M179.8,91.36a.22.22,0,0,1-.2-.2c0-3.2-.4-15.5-.4-15.6a.2.2,0,1,1,.4,0c0,.1.4,12.5.4,15.6a.22.22,0,0,1-.2.2Z" transform="translate(-0.1 -0.26)"/><path class="cls-5" d="M179.6,79.76c-.1,0-.1,0-.2-.1a.19.19,0,0,1,0-.3c.1-.1,1.6-1.3,2.3-1.8.1-.1.2,0,.3,0s0,.2,0,.3c-.7.5-2.3,1.8-2.3,1.8A.1.1,0,0,1,179.6,79.76Z" transform="translate(-0.1 -0.26)"/><path class="cls-5" d="M208.7,46.76a.22.22,0,0,1-.2-.2c0-.1,0-.2.2-.2,6.3-1.4,10.3-4.5,11.4-9.1,1.6-6.7-3.1-14.8-8.6-19.3-5-4.1-10.2-5.3-14.4-3.4a.37.37,0,0,1-.3-.1c-.1-.1,0-.2.1-.3,4.3-2,9.7-.7,14.8,3.4,5.6,4.6,10.4,12.9,8.7,19.8-.7,3.3-3.4,7.7-11.7,9.4Z" transform="translate(-0.1 -0.26)"/><path class="cls-4" d="M190,59.36v-9.5l2.9.7,3.3.3c-5.6-4.4-6.2-12.3-5.4-16.2h0a3.41,3.41,0,0,1-2.8-.4c-1.3-.9-1.1-4.3,0-5.2a2.48,2.48,0,0,1,3.2.2,10.44,10.44,0,0,0,5.4-2.9,11,11,0,0,0,1.9-3.5,14.6,14.6,0,0,0,5.8,2.8,31.88,31.88,0,0,0,5.7.6l.1.2c.1,1.7,1.4,12.4.4,15.1s-3.9,4.5-7.3,4.5c0,0,1.6,15.2,1.6,16.9Z" transform="translate(-0.1 -0.26)"/><path class="cls-15" d="M210.4,28.66A24.47,24.47,0,0,1,200,25a9.36,9.36,0,0,1-6,3.5,10.52,10.52,0,0,0,4.5-5.5s3,3.4,11.4,3.4l.2.1A16.6,16.6,0,0,1,210.4,28.66Z" transform="translate(-0.1 -0.26)"/><path class="cls-5" d="M191.5,29.46a.2.2,0,0,1,0-.4,8.76,8.76,0,0,0,6.2-4.3,6.7,6.7,0,0,0,.7-1.8,1.76,1.76,0,0,1-.4-.5c-1.1-1.3-1.1-2.1-.9-2.5a1.05,1.05,0,0,1,.9-.5,1.09,1.09,0,0,1,1,.7,4.69,4.69,0,0,1-.1,2.6c3,2.8,10,4.8,15.4,1.9.1-.1.2,0,.3.1s0,.2-.1.3a13.87,13.87,0,0,1-9.7,1.1,13,13,0,0,1-6-2.9,11.11,11.11,0,0,1-.7,1.6,9.37,9.37,0,0,1-6.6,4.6Zm6.4-9.5a.76.76,0,0,0-.5.2c-.1.1-.2.7.8,2,.1.1.1.2.2.3a3.64,3.64,0,0,0,0-2.1.46.46,0,0,0-.5-.4Z" transform="translate(-0.1 -0.26)"/><circle class="cls-5" cx="207.71" cy="31.5" r="0.7"/><circle class="cls-5" cx="201.01" cy="31.7" r="0.7"/><path class="cls-5" d="M199.8,30.26c-.1,0-.1,0-.2-.1s0-.2.1-.3a3.24,3.24,0,0,1,2.4-.5.2.2,0,1,1,0,.4,4.26,4.26,0,0,0-2.2.5Z" transform="translate(-0.1 -0.26)"/><path class="cls-5" d="M208.6,30.16h-.1a3.06,3.06,0,0,0-2-.3.2.2,0,0,1,0-.4,3.5,3.5,0,0,1,2.3.4.37.37,0,0,1,.1.3Z" transform="translate(-0.1 -0.26)"/><path class="cls-5" d="M190.7,32.46h0c-.1,0-1.2-.3-2.1-2-.1-.1,0-.2.1-.3s.2,0,.3.1c.8,1.5,1.7,1.7,1.7,1.7s.2.1.2.3S190.8,32.46,190.7,32.46Z" transform="translate(-0.1 -0.26)"/><path class="cls-5" d="M188.7,33h0c-.2-.1-.2-.2-.2-.3a2.59,2.59,0,0,1,1.1-1.1.37.37,0,0,1,.3.1c.1.1,0,.2-.1.3a1.88,1.88,0,0,0-.9.8A.22.22,0,0,1,188.7,33Z" transform="translate(-0.1 -0.26)"/><path class="cls-6" d="M205.1,38.26h0a1,1,0,0,0,1-1.1l-.2-2.8a1,1,0,0,0-1.1-1h-.1a1,1,0,0,0-1,1.1l.2,2.8A1.19,1.19,0,0,0,205.1,38.26Z" transform="translate(-0.1 -0.26)"/><path class="cls-17" d="M199.5,33.46a1.64,1.64,0,0,1,.5,3.1c-.9.4-2.9,0-2.8-1.3A2,2,0,0,1,199.5,33.46Z" transform="translate(-0.1 -0.26)"/><path class="cls-17" d="M210.7,33.16a1.64,1.64,0,0,1,.5,3.1c-.9.4-2.9,0-2.8-1.3C208.5,34.06,209.4,32.76,210.7,33.16Z" transform="translate(-0.1 -0.26)"/><path class="cls-5" d="M204.8,40.86a5.67,5.67,0,0,1-2.7-.6.22.22,0,1,1,.2-.4c1.4.8,4,.8,5.2-.2a.21.21,0,0,1,.3.3A5.07,5.07,0,0,1,204.8,40.86Z" transform="translate(-0.1 -0.26)"/><path class="cls-15" d="M203.2,46.06a20.31,20.31,0,0,1-7.6-1.6s1.7,4.5,7.9,4.3Z" transform="translate(-0.1 -0.26)"/><path class="cls-5" d="M196.1,51.16h0a17.93,17.93,0,0,1-12.3-5c-.2.2-.4.5-.6.7a4.54,4.54,0,0,1-4.5,1.3c-3.2-.7-6.2-3.9-7.3-7.8-.9-3-1.4-8.9,4.7-15.3a.21.21,0,0,1,.3.3c-6,6.3-5.5,12-4.6,14.9,1.1,3.7,4,6.8,7,7.5a4,4,0,0,0,4.1-1.1c.2-.3.5-.5.7-.8a6.22,6.22,0,0,1-1.2-2,1.84,1.84,0,0,1,.8-2.1,1.3,1.3,0,0,1,1.7.4c.3.3.9,1.5-.8,3.8a17.74,17.74,0,0,0,12,4.9.22.22,0,0,1,.2.2A.35.35,0,0,1,196.1,51.16ZM183.8,42a.6.6,0,0,0-.4.1,1.26,1.26,0,0,0-.6,1.6,3.53,3.53,0,0,0,1.1,1.8c1.1-1.6,1.1-2.6.7-3.2A1.6,1.6,0,0,0,183.8,42Z" transform="translate(-0.1 -0.26)"/><path class="cls-5" d="M204.9,63.26h0L193,60.36c-.1,0-.2-.1-.2-.3s.1-.2.3-.2l11.5,2.8-.9-10.1a.2.2,0,1,1,.4,0L205,63c0,.1,0,.1-.1.2C205,63.16,204.9,63.26,204.9,63.26Z" transform="translate(-0.1 -0.26)"/><path class="cls-5" d="M198.1,183.56c-.1,0-.1-.1,0,0-.2-.1-.2-.2-.2-.3,4.9-12,13.3-34.2,15.1-48.8a.2.2,0,0,1,.4,0c-1.9,14.6-10.3,36.9-15.2,48.9A.35.35,0,0,1,198.1,183.56Z" transform="translate(-0.1 -0.26)"/><path class="cls-5" d="M166.3,154.46a.35.35,0,0,1-.2-.1.37.37,0,0,1,.1-.3c10.5-3.8,19.4-9.8,24.4-16.3a.21.21,0,0,1,.3.3c-4.9,6.6-13.9,12.6-24.6,16.4Z" transform="translate(-0.1 -0.26)"/><path class="cls-5" d="M202.9,254.86c.1,3.8.2,9.2.2,10.1.1,1.6,1.2,2.6,3.1,2.5,1.5-.1,29.8-.9,31.3-1a1.8,1.8,0,0,0,.6-3.5c-1.7-.7-15.3-5-18.2-5.8-2.5-.7-2.2-2.7-2.2-2.7Z" transform="translate(-0.1 -0.26)"/><path class="cls-5" d="M150.7,249c-3.3,7.5-4.1,9.7-3.7,11a3.37,3.37,0,0,0,2.7,2.4c1.4.4,29.1,6.1,30.6,6.4a2,2,0,0,0,1.6-3.6c-1.7-1.1-13.5-8-16-9.6a1.76,1.76,0,0,1-.8-2.4Z" transform="translate(-0.1 -0.26)"/><path class="cls-5" d="M382.2,180.46a.35.35,0,0,1-.2-.1c-2.8-8.5-9.7-31.2-9.7-31.4a.22.22,0,0,1,.4-.2c.1.2,7,22.9,9.7,31.4.1.2,0,.3-.2.3Z" transform="translate(-0.1 -0.26)"/><path class="cls-5" d="M380.4,257.26c.9,8.6,1.3,10.1.4,11.2s-2.1,1-4.2,1c-1.5,0-29-1.2-30.4-1.2-2.2-.1-2.5-3.1.4-4.3,2.7-1.1,12-3.9,14.7-5.1a3,3,0,0,0,1.7-2.6Z" transform="translate(-0.1 -0.26)"/><path class="cls-5" d="M440.8,254.56c2,8.4,2.7,9.9,2,11.1-.8,1.4-2,1.3-4,1.6-1.4.2-28.9,2.9-30.3,3.1-2.2.3-2.9-2.8-.2-4.3,2.5-1.4,11.4-5.5,13.9-7.1a3.07,3.07,0,0,0,1.4-2.8Z" transform="translate(-0.1 -0.26)"/></svg>