<?xml version="1.0" encoding="utf-8"?>
<!-- Generator: Adobe Illustrator 23.0.1, SVG Export Plug-In . SVG Version: 6.00 Build 0)  -->
<svg version="1.1" id="Layer_1" xmlns="http://www.w3.org/2000/svg" xmlns:xlink="http://www.w3.org/1999/xlink" x="0px" y="0px"
	 viewBox="0 0 415.2 304.2" style="enable-background:new 0 0 415.2 304.2;" xml:space="preserve">
<style type="text/css">
	.st0{fill:url(#SVGID_1_);}
	.st1{fill:#A0BFFF;}
	.st2{fill:#4368B3;}
	.st3{fill:#8BBBFF;}
	.st4{fill:url(#SVGID_2_);}
	.st5{fill:#FFF3F3;}
</style>
<g>
	
		<radialGradient id="SVGID_1_" cx="435.1076" cy="-279.9774" r="485.6255" fx="400.6406" fy="-280.3697" gradientTransform="matrix(0.9179 0 0 0.9349 7.5612 169.2996)" gradientUnits="userSpaceOnUse">
		<stop  offset="0" style="stop-color:#FFFFFF;stop-opacity:0.7"/>
		<stop  offset="0.2787" style="stop-color:#FAFDFE;stop-opacity:0.6361"/>
		<stop  offset="0.5875" style="stop-color:#EDF6FA;stop-opacity:0.5652"/>
		<stop  offset="0.9099" style="stop-color:#D7ECF3;stop-opacity:0.4913"/>
		<stop  offset="0.959" style="stop-color:#D3EAF2;stop-opacity:0.48"/>
	</radialGradient>
	<path class="st0" d="M204.3,5.5C91.9,27.1,41.2,66.4,16.3,104c-18.8,28.4-19.7,59.2-8.4,96.9c20.8,69.4,103.8,115.9,209.2,100.3
		C364.8,279.2,415.1,211,415.1,125C415.1,23.3,309.6-14.6,204.3,5.5z"/>
	<path class="st1" d="M290.2,173.4c-7.8,0.8-26.4,7.1-33.5,7.8c-8.1,0.8-35.7-2.7-42.4-7.1c-5.5-3.6,7.7-7.7,17.6-10.2
		c10.4-2.6,6-13.4-8.4-11.3c-33.7,4.9-42.4,11.2-53.5,12.5c-5.3,0.6-19.5,0.1-19.5,0.1c-5.7,0.2-11.3,0.1-16.8-0.3
		c-2.7,18-1.7,35.8,5,52.4c3.5,8.6,7.4,16.3,11.8,23.3c0.7,0,1.3,0,2,0l3,0.1c49.4,8.9,72,8.1,87-6.1c8-7.5,6.7-17,10.5-17.4
		c7.6-0.7,10-4.5,10.6-6.7c1.4-5.8,18-12.9,20.4-14.7c7.5-5.7,5.3-11.1,6.7-11.8C296.5,181.1,298,172.6,290.2,173.4z"/>
	<path class="st1" d="M133.8,164.8c-53.3-3.3-94-29.7-117.6-60.7c-18.6,28-19.1,58.4-8.6,95.6c8.1,5.3,15.7,9.3,20.8,12.1
		c36.1,19.8,77.7,29.6,122.2,28.7"/>
	<g>
		<path class="st2" d="M252.8,195.8c-6,0-12.8-0.5-18.7-1.4c-0.6-0.1-1-0.6-0.9-1.2c0.1-0.6,0.6-1,1.2-0.9c10.1,1.6,23,1.9,29.4,0.6
			c2.8-0.6,17.9-6.8,25.5-10c0.5-0.2,1.1,0,1.4,0.6c0.2,0.5,0,1.1-0.6,1.4c-0.9,0.4-22.3,9.4-25.9,10.2
			C261.4,195.5,257.3,195.8,252.8,195.8z"/>
		<path class="st2" d="M170.7,204.3c-3.2,0-6-0.3-8.2-0.5l-1-0.1c-0.6-0.1-1-0.6-0.9-1.1c0.1-0.6,0.6-1,1.1-0.9l1,0.1
			c9.3,0.9,28.7,2.9,43.1-20.9c0.3-0.5,0.9-0.6,1.4-0.4c0.5,0.3,0.6,0.9,0.4,1.4C196,201.1,181.3,204.3,170.7,204.3z"/>
		<path class="st2" d="M242.4,207.2c-5,0-9.6-0.2-11.9-0.4c-0.6-0.1-1-0.6-0.9-1.1c0.1-0.6,0.6-1,1.1-0.9c5.7,0.6,22.2,0.9,28.3-1
			c0.5-0.2,1.1,0.1,1.3,0.7c0.2,0.5-0.1,1.1-0.7,1.3C255.9,206.8,248.8,207.2,242.4,207.2z"/>
		<path class="st2" d="M218.5,230.2c-0.2,0-0.3,0-0.4-0.1c-0.5-0.2-0.7-0.9-0.5-1.4c9.1-19.1,13.8-41.2,13.9-41.4
			c0.1-0.6,0.7-0.9,1.2-0.8c0.6,0.1,0.9,0.7,0.8,1.2c0,0.2-4.8,22.5-14,41.8C219.2,229.9,218.8,230.2,218.5,230.2z"/>
		<g>
			<path class="st3" d="M226.8,217.8c8.6,0,16.4-1.4,18.3-3"/>
			<path class="st2" d="M226.8,218.9c-0.6,0-1-0.5-1-1c0-0.6,0.5-1,1-1c8.5,0,16-1.4,17.6-2.7c0.4-0.4,1.1-0.3,1.5,0.2
				c0.4,0.4,0.3,1.1-0.2,1.5C243.5,217.4,235.4,218.8,226.8,218.9C226.8,218.9,226.8,218.9,226.8,218.9z"/>
		</g>
		<g>
			<path class="st1" d="M263.1,210.1c0,0,5.4-17.4,5.2-20.5c-0.2-3.1-3.9-5.9-10.5,3.1c-2.9,4-6.2,15.4-11.4,20.9"/>
			<path class="st2" d="M246.4,214.7c-0.3,0-0.5-0.1-0.7-0.3c-0.4-0.4-0.4-1.1,0-1.5c3.1-3.2,5.5-8.7,7.6-13.4
				c1.4-3.1,2.6-5.7,3.7-7.4c4.5-6.2,7.7-6.9,9.6-6.4c1.6,0.4,2.7,1.9,2.8,3.8c0.2,3.2-4.7,19.1-5.2,20.9c-0.2,0.5-0.8,0.9-1.3,0.7
				c-0.5-0.2-0.9-0.8-0.7-1.3c2.2-6.9,5.3-18,5.2-20.1c-0.1-0.8-0.4-1.7-1.3-2c-0.6-0.2-3-0.3-7.3,5.6c-1,1.4-2.2,4-3.5,7
				c-2.2,4.9-4.7,10.5-8,14C246.9,214.6,246.7,214.7,246.4,214.7z"/>
		</g>
		<g>
			<path class="st1" d="M248.3,226.1c0,0,6.6-16.5,7.4-19.9c1.2-5.3-2.7-6.4-6.7-2.9c-3.9,3.5-7.8,19.9-12.4,22.3
				c-4.6,2.4-13.7,3.7-13.7,3.7"/>
			<path class="st2" d="M222.9,230.4c-0.5,0-1-0.4-1-0.9c-0.1-0.6,0.3-1.1,0.9-1.2c0.1,0,8.9-1.2,13.3-3.5c2.2-1.2,4.5-6.7,6.5-11.6
				c1.9-4.5,3.7-8.8,5.6-10.6c2.4-2.2,5.1-2.9,6.9-1.9c0.8,0.4,2.4,1.9,1.5,5.7c-0.8,3.4-7.1,19.3-7.4,20c-0.2,0.5-0.8,0.8-1.4,0.6
				c-0.5-0.2-0.8-0.8-0.6-1.4c0.1-0.2,6.6-16.5,7.3-19.7c0.4-1.7,0.2-3-0.6-3.5c-0.8-0.5-2.5-0.2-4.4,1.6c-1.6,1.4-3.4,5.7-5.1,9.8
				c-2.4,5.7-4.6,11.1-7.5,12.6c-4.7,2.5-13.6,3.7-14,3.8C223,230.4,223,230.4,222.9,230.4z"/>
		</g>
	</g>
</g>
<radialGradient id="SVGID_2_" cx="274.401" cy="-32.2085" r="119.3034" gradientTransform="matrix(0.9179 0 0 0.9349 7.5612 169.2996)" gradientUnits="userSpaceOnUse">
	<stop  offset="0.2522" style="stop-color:#F3658C"/>
	<stop  offset="0.9359" style="stop-color:#FBB89D"/>
</radialGradient>
<path class="st4" d="M302.6,81.3c-1.2-13.8-10.4-25.4-23.2-25.4c-9.5,0-17.2,6.3-20.7,15.3c-3.6-9-11.8-15.3-21.3-15.3
	c-12.8,0-22,11.6-23.2,25.4c0,0-0.6,3.4,0.8,9.6c1.9,8.4,6.3,15.9,12.2,21.6l31.5,29.7l31-29.7c5.9-5.7,10.4-13.2,12.2-21.6
	C303.2,84.7,302.6,81.3,302.6,81.3z"/>
<path class="st5" d="M292,81.9c0-8.3-6.4-15-14.2-15c-1,0-1.8-0.8-1.8-1.9c0-1,0.8-1.9,1.8-1.9c9.8,0,17.7,8.4,17.7,18.8
	c0,1-0.8,1.9-1.8,1.9C292.8,83.8,292,83,292,81.9z"/>
</svg>
