<svg id="Layer_1" data-name="Layer 1" xmlns="http://www.w3.org/2000/svg" xmlns:xlink="http://www.w3.org/1999/xlink" viewBox="0 0 233.63 156.88"><defs><style>.cls-1{fill:#eff7f9;opacity:0.57;}.cls-11,.cls-13,.cls-15,.cls-2{fill:none;}.cls-2{stroke:#808793;stroke-width:0.53px;}.cls-11,.cls-13,.cls-14,.cls-15,.cls-2{stroke-linecap:round;stroke-linejoin:round;}.cls-3{fill:#c3decf;}.cls-4{fill:#e6f2f4;}.cls-5{fill:#d5dfe2;}.cls-6{fill:#38455b;}.cls-7{fill:#007a87;}.cls-14,.cls-18,.cls-8{fill:#fff;}.cls-8{opacity:0.48;}.cls-9{fill:url(#linear-gradient);}.cls-10{fill:#d7ecf4;opacity:0.64;}.cls-11,.cls-14{stroke:#38455b;}.cls-11,.cls-13,.cls-14{stroke-width:0.55px;}.cls-12{fill:#f7ca7c;}.cls-13{stroke:#5e646d;}.cls-15{stroke:#fff;stroke-width:1.1px;}.cls-16{fill:#4aa3d1;}.cls-17{fill:#8a7cb2;}.cls-18{opacity:0.6;}</style><linearGradient id="linear-gradient" x1="134.21" y1="70.84" x2="138.8" y2="182.06" gradientUnits="userSpaceOnUse"><stop offset="0" stop-color="#c3decf"/><stop offset="0.11" stop-color="#aebac4"/><stop offset="0.22" stop-color="#9a98ba"/><stop offset="0.32" stop-color="#8e84b4"/><stop offset="0.39" stop-color="#8a7cb2"/><stop offset="0.48" stop-color="#8480b5"/><stop offset="0.6" stop-color="#718bbe"/><stop offset="0.75" stop-color="#549dcc"/><stop offset="0.79" stop-color="#4aa3d1"/><stop offset="0.87" stop-color="#3792b6"/><stop offset="1" stop-color="#1d7a90"/></linearGradient></defs><title>for_providers</title><path class="cls-1" d="M42.1,151.7c16.91-12.24,31.76-29,31.76-15S68,148.12,79,140.11c20-14.62,23.64-11.22,34.49-2.48,16.07,12.93,51.57-2.67,73-14.88,19.18-10.91,47.63-16.68,46.89-3.65-.8,14.06-1.47,32.6-1.47,32.6Z"/><line class="cls-2" x1="60.74" y1="156.41" x2="231.88" y2="156.41"/><circle class="cls-3" cx="101.74" cy="48.18" r="0.96"/><path class="cls-4" d="M98.62,65c22.77-6.31,23.44-6,23.44-6l6.2,17.92L117.55,97l-8.9,2.6L97.38,65.45Z"/><path class="cls-5" d="M99.49,66.46c3.33-2.2,21.43-6.64,21.8-6.4S127,75.6,127,75.6c-.06.67,1.6.25,1.41-1s-2.76-8.11-2.94-9.09-2.77-7.79-3.56-7.92a82.44,82.44,0,0,0-13.57,2.58c-4.23,1.29-10.68,3.5-11.29,4.18a2.55,2.55,0,0,0-.8,2.08c.06.8,10.3,35.28,11,35s10.28-2.61,10.09-3c0-.06.91-2.46.57-3.46-.13-.37-7,2.58-7.46,2.43C109.57,97.07,99,66.78,99.49,66.46Z"/><path class="cls-6" d="M96.62,64.38c-1.45,1.22-1.37,3.38-.76,5.15s9.72,28.63,9.89,28.86c.89,1.24,1.56.11,1.5-.48,0-.26-10.67-30.26-10.75-31.43A8.37,8.37,0,0,1,96.62,64.38Z"/><ellipse class="cls-7" cx="115.24" cy="75.22" rx="6.12" ry="6.85" transform="translate(-21.06 56.23) rotate(-25.2)"/><polyline class="cls-8" points="98.39 72.46 96.55 67.07 96.56 64.98"/><path class="cls-8" d="M107.13,60.65c3.35-.93,8.3-2.29,9.27-2.45,1.69-.29,1.61-.49,1.61-.49L106.81,96l-4.57-12.73"/><path class="cls-8" d="M96.56,65c.7-1.08,4.67-2.62,6.2-3.1"/><path class="cls-9" d="M145.07,72.07c.08.16,3.3,15,15,19.56,9.26,3.63,15.87-.31,15.87-.31,1,9.08,1.17,19.84,2.13,35.67,1.16,19.1,2,29.27,2,29.27H124.91L125.4,140s-4.14,5.41-9.5,5.22c-5.74-.19-9.58-3.79-13.1-11.41-4.74-10.28-9.66-31.45-9.66-31.45l14.43-5.66,5.78,19.16s2-17.33,5.28-26.21,7.33-13.12,13.31-15A67,67,0,0,1,145.07,72.07Z"/><path class="cls-10" d="M156.88,78.91c12.61-3.35,19.27-12.21,17.64-22-2-12-16.32-8.48-22-17.26-14.79-22.8,14.22-44.57,39-37.77,25,6.86,36.65,27.37,33.65,52.22-2.32,19.3-11.07,32.32-30.14,41.54-29.53,14.27-65.26-5.09-62.88-12.66S141.42,83,156.88,78.91Z"/><path class="cls-8" d="M96.56,65c-.48.86.52,3.6,1,5.23.44,1.41,3.3,10.29,3.3,10.29l3.83-19.28s-6.87,2.36-7.38,2.87a6.28,6.28,0,0,0-.77.89"/><path class="cls-11" d="M133.22,43.56c-1.06-1.73-6.55,4.5-4.77,7.09.92,1.33,3,.86,3.85-.75C133.49,47.67,133.61,44.18,133.22,43.56Z"/><path class="cls-12" d="M134.82,41.31a39.18,39.18,0,0,0-4.39,11.35c-.68,3.52-1.6,7.55-.23,9.49s5.2,1.48,6.22,1.59,1.54,2.71,3.24,9.06c0,0,5.08-.94,5.49-.57,0,0-2.75-5.5-2.38-14.62.22-5.32,3.13-13.47,3.13-13.47s-5.49.21-8.25-1.11A13.2,13.2,0,0,1,134.82,41.31Z"/><path class="cls-11" d="M166.13,92.88c-10.58-1.09-15.33-7.61-19.25-16.23-3.4-7.5-4.5-13.32-4.1-19.73a44.26,44.26,0,0,1,3.12-12.78,17.9,17.9,0,0,1-11.08-2.83c-6.29-3.89-3.56-7.85,3.26-8.72,3.12-.4,12.46-1.94,16.28-1.65s10.13,3.26,10.51,8.89-3.12,16.85-.86,20.84,9.92,3.43,16.08,1.86c5.93-1.52,8.73-.07,9.6,5.87C190.67,75.2,183.6,94.68,166.13,92.88Z"/><path class="cls-11" d="M130.54,46.86c8.4,2.74,11,3.62,11,3.62"/><path class="cls-13" d="M129.37,106.66c-1.85,15.46-2.24,16-4,33.3"/><path class="cls-12" d="M107.57,96.66c.82-4.6,2.61-16.17,1.54-17.81s-2.71-.33-3,1.15-1.56,5.67-2.54,6.65-2-.57-2.38-1.72-4.2-12-4.2-12a32.7,32.7,0,0,1-1.11,7.32A27.86,27.86,0,0,0,95,89.61c.08,3.12,1.33,11.46,1.33,11.46Z"/><path class="cls-12" d="M131.94,74.56c-2.92-1.37-6.42-5.35-7.4-5.22s-1.25.62-1.1,1.54,2,2.93,2.54,3.6a16,16,0,0,1,1.33,2.29,22.16,22.16,0,0,1,3-1.62C131.48,74.76,131.94,74.56,131.94,74.56Z"/><path class="cls-11" d="M101.76,83.79C98.67,71.54,96.07,67.46,96.56,65s23-7.9,25.3-7.52c1.15.19,4.92,12.07,5.54,13.55"/><path class="cls-11" d="M116,98.65a72.92,72.92,0,0,1-7,2"/><path class="cls-14" d="M145.9,44.14c7.49-1.3,4.56-5.26,2.79-4.38-1.34.67-2.79,4.38-2.79,4.38"/><path class="cls-6" d="M108.45,100.46c3-.76,6.41-1.91,7.93-2.29l-.28,1.72c-.42.3-7.23,2.51-7.28,2.09Z"/><path class="cls-11" d="M96.8,76.37a55.37,55.37,0,0,0,1.46,9.56"/><path class="cls-11" d="M95.56,81.7c-.07,3.35-.07,4.67-.07,4.67"/><path class="cls-13" d="M113.35,115.82c-.41,6.48-1.63,16.89-1.63,16.89"/><polyline class="cls-15" points="113.02 76.51 116.47 77.66 116.95 71.86"/><circle class="cls-16" cx="47.86" cy="46.43" r="7.49"/><circle class="cls-17" cx="81.43" cy="61.36" r="4.18"/><rect class="cls-7" x="99.18" y="7.37" width="11.26" height="11.26" transform="translate(21.5 77.92) rotate(-45)"/><circle class="cls-16" cx="112.39" cy="37.75" r="1.83"/><circle class="cls-3" cx="2.45" cy="49.1" r="1.83"/><rect class="cls-7" x="15.04" y="84.26" width="8.29" height="2.88" transform="matrix(0.81, -0.58, 0.58, 0.81, -46.24, 27.12)"/><rect class="cls-3" x="80.32" y="34.08" width="8.29" height="2.88" transform="translate(73 -55.39) rotate(60)"/><circle class="cls-17" cx="40.33" cy="17.58" r="1.83"/><circle class="cls-16" cx="52.12" cy="85.32" r="1.83"/><path class="cls-6" d="M151.51,24.59c-.15.89.34,1.07.65.89s.51-1.25.2-1.5S151.6,24,151.51,24.59Z"/><path class="cls-6" d="M155.31,24c-.15.9.32,1,.65.9s.51-1.26.2-1.51S155.4,23.38,155.31,24Z"/><path class="cls-11" d="M153,27.61c.42.43,1.52.16,2.22-.66"/><path class="cls-18" d="M133.47,49.86c-2.93,1.23-1.5,3.82-.2,4.25s3.92-.45,3.56-2.29A2.58,2.58,0,0,0,133.47,49.86Z"/><path class="cls-18" d="M157.85,25.08a1,1,0,0,0-.1,1.89c.58.2,1.75-.2,1.6-1A1.15,1.15,0,0,0,157.85,25.08Z"/><path class="cls-18" d="M150.16,26a1,1,0,0,0-.09,1.9c.58.19,1.75-.21,1.59-1A1.15,1.15,0,0,0,150.16,26Z"/></svg>