<?xml version="1.0" encoding="utf-8"?>
<!-- Generator: Adobe Illustrator 23.0.1, SVG Export Plug-In . SVG Version: 6.00 Build 0)  -->
<svg version="1.1" id="Layer_1" xmlns="http://www.w3.org/2000/svg" xmlns:xlink="http://www.w3.org/1999/xlink" x="0px" y="0px"
	 viewBox="0 0 492.1 379.2" style="enable-background:new 0 0 492.1 379.2;" xml:space="preserve">
<style type="text/css">
	.st0{fill:#CCC9C2;}
	.st1{opacity:0.48;fill:#D3EAF2;}
	.st2{fill:#38455B;}
	.st3{fill:#F7CA7C;}
	.st4{opacity:0.33;fill:#DD704A;}
	.st5{opacity:0.6;fill:#FFFFFF;}
	.st6{fill:#EA759E;}
	.st7{fill:#93C6FF;}
	.st8{fill:url(#SVGID_1_);}
	.st9{fill:url(#SVGID_2_);}
	.st10{opacity:0.54;fill:#FFFFFF;}
	.st11{opacity:0.26;fill:#FFFFFF;}
	.st12{fill:none;stroke:#38455B;stroke-width:0.9107;stroke-linecap:round;stroke-linejoin:round;stroke-miterlimit:10;}
</style>
<g>
	<path class="st0" d="M490.6,302.7C490.6,302.7,490.6,302.7,490.6,302.7L0.4,301.8c-0.3,0-0.6-0.3-0.6-0.6s0.3-0.6,0.6-0.6
		c0,0,0,0,0,0l490.2,0.9c0.3,0,0.6,0.3,0.6,0.6S491,302.7,490.6,302.7z"/>
	<path class="st0" d="M491.4,311.3C491.4,311.3,491.4,311.3,491.4,311.3L0.7,310.4c-0.3,0-0.6-0.3-0.6-0.6s0.3-0.6,0.6-0.6
		c0,0,0,0,0,0l490.7,0.9c0.3,0,0.6,0.3,0.6,0.6S491.7,311.3,491.4,311.3z"/>
	<path class="st0" d="M491.1,324.3C491.1,324.3,491.1,324.3,491.1,324.3l-221.6-0.4L0.7,323.4c-0.3,0-0.6-0.3-0.6-0.6
		c0-0.3,0.3-0.6,0.6-0.6c0,0,0,0,0,0l268.7,0.4l221.6,0.4c0.3,0,0.6,0.3,0.6,0.6C491.7,324.1,491.4,324.3,491.1,324.3z"/>
	<path class="st0" d="M266.5,378.7C266.5,378.7,266.5,378.7,266.5,378.7c-0.3,0-0.6-0.3-0.6-0.6l0.1-54.9c0-0.3,0.3-0.6,0.6-0.6
		c0,0,0,0,0,0c0.3,0,0.6,0.3,0.6,0.6l-0.1,54.9C267.1,378.5,266.9,378.7,266.5,378.7z"/>
	<path class="st0" d="M205,378.6c-0.1,0-0.2,0-0.2,0c-0.3-0.1-0.4-0.5-0.3-0.8l22.8-54.8c0.1-0.3,0.5-0.4,0.8-0.3
		c0.3,0.1,0.4,0.5,0.3,0.8l-22.8,54.8C205.4,378.5,205.2,378.6,205,378.6z"/>
	<path class="st0" d="M131.5,378.5c-0.1,0-0.3,0-0.4-0.1c-0.2-0.2-0.3-0.6,0-0.8l48.7-54.8c0.2-0.2,0.6-0.3,0.8,0
		c0.2,0.2,0.3,0.6,0,0.8l-48.7,54.8C131.8,378.4,131.6,378.5,131.5,378.5z"/>
	<path class="st0" d="M51.2,378.3c-0.2,0-0.4-0.1-0.5-0.2c-0.2-0.3-0.1-0.6,0.1-0.8l77.7-54.7c0.3-0.2,0.6-0.1,0.8,0.1
		c0.2,0.3,0.1,0.6-0.1,0.8l-77.7,54.7C51.4,378.3,51.3,378.3,51.2,378.3z"/>
	<path class="st0" d="M0.9,360.4c-0.2,0-0.4-0.1-0.5-0.3c-0.1-0.3,0-0.6,0.3-0.8l72.6-36.9c0.3-0.1,0.6,0,0.8,0.3
		c0.1,0.3,0,0.6-0.3,0.8L1.2,360.3C1.1,360.3,1,360.4,0.9,360.4z"/>
	<path class="st0" d="M335.6,378.9c-0.2,0-0.4-0.1-0.5-0.4l-22.6-54.9c-0.1-0.3,0-0.6,0.3-0.8c0.3-0.1,0.6,0,0.8,0.3l22.6,54.9
		c0.1,0.3,0,0.6-0.3,0.8C335.8,378.9,335.7,378.9,335.6,378.9z"/>
	<path class="st0" d="M409.1,379c-0.2,0-0.3-0.1-0.4-0.2l-48.4-55c-0.2-0.2-0.2-0.6,0.1-0.8c0.2-0.2,0.6-0.2,0.8,0.1l48.4,55
		c0.2,0.2,0.2,0.6-0.1,0.8C409.4,379,409.3,379,409.1,379z"/>
	<path class="st0" d="M489.4,379.2c-0.1,0-0.2,0-0.3-0.1l-77.5-55c-0.3-0.2-0.3-0.6-0.1-0.8c0.2-0.3,0.6-0.3,0.8-0.1l77.5,55
		c0.3,0.2,0.3,0.6,0.1,0.8C489.8,379.1,489.6,379.2,489.4,379.2z"/>
	<path class="st0" d="M491.4,337.4c-0.1,0-0.2,0-0.3-0.1L467,324.2c-0.3-0.2-0.4-0.5-0.2-0.8c0.2-0.3,0.5-0.4,0.8-0.2l24.1,13.2
		c0.3,0.2,0.4,0.5,0.2,0.8C491.8,337.3,491.6,337.4,491.4,337.4z"/>
	<path class="st0" d="M477.6,179.7C477.6,179.7,477.6,179.7,477.6,179.7l-100-0.2c-0.3,0-0.6-0.3-0.6-0.6l0.3-174.5
		c0-0.3,0.3-0.6,0.6-0.6h100c0.2,0,0.3,0.1,0.4,0.2c0.1,0.1,0.2,0.3,0.2,0.4l-0.3,174.7c0,0.2-0.1,0.3-0.2,0.4
		S477.8,179.7,477.6,179.7z M378.2,178.3l98.8,0.2L477.4,5h-98.8L378.2,178.3z"/>
	<path class="st0" d="M471.5,173.7C471.5,173.7,471.5,173.7,471.5,173.7l-87.8-0.2c-0.3,0-0.6-0.3-0.6-0.6l0.3-162.4
		c0-0.2,0.1-0.3,0.2-0.4s0.3-0.2,0.4-0.2c0,0,0,0,0,0l87.8,0.2c0.3,0,0.6,0.3,0.6,0.6l-0.3,162.4c0,0.2-0.1,0.3-0.2,0.4
		S471.6,173.7,471.5,173.7z M384.3,172.4l86.6,0.2l0.3-161.2l-86.6-0.2L384.3,172.4z"/>
	<path class="st0" d="M419,162.6C419,162.6,419,162.6,419,162.6l-18.4,0c-0.2,0-0.3-0.1-0.4-0.2c-0.1-0.1-0.2-0.3-0.2-0.4l0-21.7
		l-15.8,5c-0.3,0.1-0.6-0.1-0.7-0.4c-0.1-0.3,0.1-0.6,0.4-0.7l16.6-5.3c0.2-0.1,0.4,0,0.5,0.1c0.1,0.1,0.2,0.3,0.2,0.5l0,21.9
		l17.2,0l0.1-42.9c0-0.2,0.1-0.3,0.2-0.4l10.5-8.9c0.1-0.1,0.2-0.1,0.4-0.1c0,0,0,0,0,0l21.7,0c0.3,0,0.6,0.3,0.6,0.6l-0.1,31
		l9.3-7.3c0.2-0.2,0.5-0.2,0.7,0l9.3,8c0.2,0.2,0.3,0.6,0.1,0.8c-0.2,0.2-0.6,0.3-0.8,0.1l-9-7.7l-9.9,7.7c-0.2,0.1-0.4,0.2-0.6,0.1
		c-0.2-0.1-0.3-0.3-0.3-0.5l0.1-31.7l-20.9,0l-10.1,8.6l-0.1,43.2C419.6,162.4,419.3,162.6,419,162.6z"/>
</g>
<g>
	<path class="st1" d="M197.9,213.6c-56.5-5-104-64-97.5-99.9c1.6-9.1,11.1-5.6,32.2,14.7c38.9,37.4,70.4,29.3,88.9-43
		c16.2-63.2,137.9-34.5,105.8,58.1C307.8,199.7,254.1,218.5,197.9,213.6z"/>
	<path class="st2" d="M308.4,98.3c-1.3,0-2.5-0.7-3-1.9c-0.1-0.3,0-0.6,0.3-0.8c0.3-0.1,0.6,0,0.8,0.3c0.5,1.1,1.7,1.5,2.8,1.1
		c1-0.5,1.5-1.7,1.1-2.8c-0.1-0.3,0-0.6,0.3-0.7c0.3-0.1,0.6,0,0.7,0.3c0.6,1.6-0.1,3.5-1.7,4.2C309.3,98.2,308.8,98.3,308.4,98.3z"
		/>
	<path class="st2" d="M297.2,95.6c0,0-0.1,0-0.1,0c-0.3-0.1-0.5-0.4-0.4-0.7c0.7-3.1,1.9-4.1,2.9-4.5c0.9-0.4,2-0.2,2.9,0.4
		c0.3,0.2,0.3,0.5,0.1,0.8c-0.2,0.3-0.5,0.3-0.8,0.1c-0.4-0.2-1.1-0.6-1.9-0.3c-1,0.4-1.7,1.7-2.2,3.7
		C297.7,95.4,297.4,95.6,297.2,95.6z"/>
	<path class="st2" d="M308.8,89.1c-0.1,0-0.1,0-0.2,0c-0.3-0.1-0.4-0.4-0.3-0.7c0.8-2.2,2-3.6,3.2-3.7c0.6-0.1,1.2,0.2,1.7,0.7
		c0.2,0.2,0.1,0.6-0.1,0.8c-0.2,0.2-0.6,0.1-0.8-0.1c-0.3-0.4-0.5-0.3-0.6-0.3c-0.6,0.1-1.5,0.9-2.3,3
		C309.3,89,309.1,89.1,308.8,89.1z"/>
	<path class="st3" d="M176.3,17.8c12.9,10.6,19.9,18.6,21.6,24.4c1.9,6.5-2,10.5-10.5,14.6c-7.1,3.4-4.8,19.4-4.2,21.7
		c0.7,2.3-24.8,12.6-26.5,12c-0.9-0.3-3.6-2.9,2.3-6.7c3.2-2,9.4-6,11.6-11.3c4.2-10.2-10.9-9-7.6-19.8c0,0-6.5,1.2-7.7-5.8
		s4-8,6.1-7.2c0,0-1.6-8.8,8.9-14.6C175.7,22.1,176.3,17.8,176.3,17.8z"/>
	<path class="st3" d="M149.8,92.4c-11.5,10.5-54.6,60.8-60.2,63.3c-5.6,2.5-12.3,3.9-16.9,7.3c-4,3-11,10.3-10.9,12.4
		c0.1,2.3,3,1.5,3,1.5s-0.6,1.8,3.4,1.7c0,0,0.7,1.3,4,1.1c0,0,1.5-0.2,6-0.8c5.5-0.7,12.1-6.3,14-5.8c2.9,0.7,2.9,6.8,7.4,6.6
		c3.9-0.1-1.3-10.5,0.2-14.2c1.4-3.6,33.8-21.7,42.9-28.5c13.5-10,17.1-17.1,16.2-25.3C157.7,102.3,149.8,92.4,149.8,92.4z"/>
	<path class="st3" d="M185,77.9c16.7-10.3,20.3-12.9,29.6-19.5c7.9-5.6,31.5-21.8,34.2-26c2.7-4.1,8.4-16.8,11.3-19.7
		c3.7-3.8,6.5-1.5,9.5-3.9c2.7-2.2,4.3-5.6,5.9-5.3c2.6,0.5,1.3,2.3,2.1,3.5c1.3,2,1,5,0.7,6.7c-0.3,1.8-0.6,4.9-0.8,7.3
		c-0.3,4.5-3.5,9.7-11.7,16.2s-23.1,28.7-36.9,42.1c-14.2,13.9-29,31.4-39.5,29C180.1,106.1,185,77.9,185,77.9z"/>
	<path class="st4" d="M176.9,18.4c1.8,6.7-0.2,8.4-8.3,11.7c-6.3,2.6-6.8,9.6-6.8,9.6s-0.3-9.1,4.5-11.7
		C172,24.8,176.9,18.4,176.9,18.4z"/>
	<path class="st2" d="M163.2,45.9c-1.2,0-2.9-0.4-4.8-1.9c-0.2-0.2-0.2-0.4-0.1-0.6c0.2-0.2,0.4-0.2,0.6-0.1c3,2.4,5.4,1.6,5.5,1.5
		c0.2-0.1,0.5,0,0.6,0.3c0.1,0.2,0,0.5-0.2,0.6C164.7,45.7,164.1,45.9,163.2,45.9z"/>
	<path class="st2" d="M161.7,49.4c-0.2,0-0.4-0.1-0.4-0.3c0-0.1-0.5-2,0.5-3.8c0.1-0.2,0.4-0.3,0.6-0.2c0.2,0.1,0.3,0.4,0.2,0.6
		c-0.8,1.4-0.4,3.1-0.4,3.1c0.1,0.2-0.1,0.5-0.3,0.6C161.8,49.4,161.7,49.4,161.7,49.4z"/>
	<path class="st5" d="M178.7,37.3c-2.3,3.3,0.9,5.1,2.6,4.7c1.7-0.4,3.9-3.1,2.3-4.8C182.6,36.1,180,35.4,178.7,37.3z"/>
	<path class="st6" d="M187.6,26.5c2.6,0.1,6.2,1.2,7.5,2.4c1,0.9-0.6,5.5-2,5c-0.4-0.1-5.9-6.4-6.3-6.7
		C186.6,27,187,26.5,187.6,26.5z"/>
	<path class="st2" d="M189.7,40.1c-0.2,0-0.4,0-0.6,0c-0.3,0-0.4-0.2-0.4-0.5c0-0.3,0.2-0.4,0.5-0.4c1.9,0.1,3.5-0.3,4.1-0.9
		c0.3-0.3,0.4-0.6,0.4-1c0-0.3,0.2-0.5,0.4-0.5c0.3,0,0.5,0.2,0.5,0.4c0,0.7-0.2,1.2-0.6,1.7C193,39.9,191.1,40.1,189.7,40.1z"/>
	<path class="st7" d="M177.1,84.3c7.1,5.6,10.3,18-1.2,27.7c-12.1,10.2-17.1,14.5-17.1,14.5L136.7,106c0,0,7.2-9.6,13.9-16.9
		c1.6-1.8,2.9-1.9,4.9-2.8c5.7-2.5,8.5-5.4,8.5-5.4C169.8,79,173.2,81.2,177.1,84.3z"/>
	<path class="st7" d="M151.7,152.5c4.2-9.1,0-30.7-2-41c-1.8-9.9-0.1-18.3,0.9-22.4c0,0,9.4-3.4,14.9-10l20.8,5.2
		c0,0,5.9,9.7,13.7,18.8c6.6,7.8,4.5,18.5-3.1,23.8c0,0-1.3,14.5-1.7,27.3l0,0L151.7,152.5z"/>
	<path class="st7" d="M165.4,109.4c-5.5-7.2-5.2-21.5,8.6-27.6c14.2-6.3,20.2-9.8,20.2-9.8l16.2,25.4c0,0-11.6,10.3-21.9,15.7
		C179.5,118,169.9,115.2,165.4,109.4z"/>
	
		<linearGradient id="SVGID_1_" gradientUnits="userSpaceOnUse" x1="312.9676" y1="169.8486" x2="309.4369" y2="356.0929" gradientTransform="matrix(0.9992 4.108052e-02 -4.108052e-02 0.9992 -123.8964 -30.5092)">
		<stop  offset="0.1696" style="stop-color:#D1D6E2"/>
		<stop  offset="0.5195" style="stop-color:#8BBBFF"/>
		<stop  offset="0.8747" style="stop-color:#76CFD4"/>
		<stop  offset="1" style="stop-color:#6ED7C3"/>
	</linearGradient>
	<path class="st8" d="M195.1,154.2c7.4,30.4,9.8,80.2,5.8,119.6c-3.7,36.1-11.7,70.9-11.7,70.9l-17.3-0.7c0,0,0.7-70.9,0-84.2
		c-1.1-20.3-17.7-70.3-18.3-81.2S195.1,154.2,195.1,154.2z"/>
	
		<linearGradient id="SVGID_2_" gradientUnits="userSpaceOnUse" x1="273.1326" y1="169.2708" x2="265.1885" y2="366.1073" gradientTransform="matrix(0.9992 4.108052e-02 -4.108052e-02 0.9992 -123.8964 -30.5092)">
		<stop  offset="0.1696" style="stop-color:#D1D6E2"/>
		<stop  offset="0.5195" style="stop-color:#8BBBFF"/>
		<stop  offset="0.8747" style="stop-color:#76CFD4"/>
		<stop  offset="1" style="stop-color:#6ED7C3"/>
	</linearGradient>
	<path class="st9" d="M151.7,152.5c-6.6,12.1-25.6,16.4-23.7,47.5c0.9,16-7.1,33.4-14.4,50.7c-9.6,22.5-37,75-39.9,81.2l14.6,9.2
		c0,0,34.5-41.3,56.8-74.6c19.1-28.5,30.1-43.6,42-73.6c4.4-11,7.5-23.8,8-38.6L151.7,152.5z"/>
	<polygon class="st3" points="171.9,344 189.2,344.7 188,352.4 171.7,351.7 	"/>
	<polygon class="st3" points="73.6,331.8 88.2,341.1 83.7,347.3 70,338.6 	"/>
	<path class="st2" d="M167,233.6c-0.1,0-0.2,0-0.2-0.1c-0.2-0.1-0.3-0.4-0.2-0.6c13.9-23.3,21.1-39.6,24.9-56.2
		c0.1-0.2,0.3-0.4,0.5-0.3c0.2,0.1,0.4,0.3,0.3,0.5c-3.9,16.8-11.1,33.1-25,56.5C167.3,233.5,167.1,233.6,167,233.6z"/>
	<path class="st10" d="M187.1,273.1c-0.4,10.2,7.4,11.5,11.1,8c3.7-3.5,5-15.1-1.7-17.2C192.4,262.5,187.4,266.1,187.1,273.1z"/>
	<path class="st2" d="M171.7,351.7c-0.2,4.1-0.3,7.5-0.3,8.5c0,1.2,0.6,2,2.5,2.2c1.6,0.1,33.4,1.3,35,1.4c1.6,0,2.6-2.3,1-3.2
		c-1.7-1-16.4-4.6-19.5-5.6c-2.6-0.9-2.4-2.6-2.4-2.6L171.7,351.7z"/>
	<path class="st2" d="M70,338.6c-2.2,3.5-4,6.4-4.5,7.3c-0.6,1.1-0.5,2,1.1,3.1c1.3,0.9,28.3,17.7,29.7,18.5
		c1.4,0.8,3.4-0.7,2.4-2.2c-1-1.7-12-12.1-14.1-14.6c-1.8-2.1-0.9-3.5-0.9-3.5L70,338.6z"/>
	<path class="st11" d="M234.9,67.8c-0.3,2.7-3.2,5.5-7.7,6.4c-4.4,0.8-1.2-5.3,2.5-7.5C234.4,63.9,235,66.8,234.9,67.8z"/>
	<path class="st11" d="M137.1,129.2c-7.1,2.6-6.8,4.9-4.6,6.4c2.2,1.5,4.9,1.2,7.7-2.2S143,127,137.1,129.2z"/>
	<path class="st7" d="M165.9,79.2c7.7,2.2,12.8-0.2,17.2-1.8c4.5-1.7,11.1-5.4,11.1-5.4l-7.7,19.7l-21.8-9.6L165.9,79.2z"/>
	<path class="st2" d="M132.8,92.9c-5.8,0-10.4-1.7-13.4-5.2c-5-5.8-4.1-15.5,2.2-24.6c0.4-0.5,0.8-1,1.1-1.5
		c-3.7-0.7-6.6-2.7-7.8-5.5c-1.2-2.9-0.1-6.1,2.9-8.6c2.5-2.2,7-2.4,10.6-2.6c2.2-0.1,4.7-0.2,4.9-0.9c0.1-0.4-0.5-1.7-5.9-5.5
		c-0.2-0.1-0.3-0.4-0.1-0.6c0.1-0.2,0.4-0.3,0.6-0.1c5.6,4,6.6,5.5,6.2,6.5c-0.4,1.3-2.6,1.4-5.7,1.5c-3.5,0.2-7.8,0.4-10.1,2.3
		c-2.7,2.3-3.6,5.1-2.6,7.6c1.1,2.6,4,4.5,7.6,5c2.8-3.1,5.5-4,7.1-3.3c0.8,0.3,1.3,1,1.1,1.8c-0.2,1.1-1.6,2.3-4.9,2.5
		c-1,0.1-2,0-3-0.1c-0.5,0.5-0.9,1.2-1.4,1.9c-6.1,8.8-7,18.1-2.3,23.5c5.9,6.9,19,6.4,35.2-1.3c4.2-2,7.3-4.3,9.8-7.1
		c0.2-0.2,0.5-0.2,0.6,0c0.2,0.2,0.2,0.5,0,0.6c-2.5,2.9-5.8,5.2-10.1,7.3C147.1,90.8,139.2,92.9,132.8,92.9z M124.6,60.9
		c0.7,0.1,1.4,0.1,2.2,0c3-0.2,4-1.2,4.1-1.8c0.1-0.3-0.2-0.7-0.6-0.8C129.4,57.9,127.3,58.2,124.6,60.9z"/>
	<path class="st2" d="M161.5,39.3C161.5,39.3,161.5,39.3,161.5,39.3c-0.3,0-0.5-0.2-0.5-0.5c0.6-7.7,1.8-9.6,5.6-11.9
		c8.7-5.4,9.9-7.7,9.4-10.9c-1.7-10.2-12.8-14.9-23-15.1c-5.4-0.1-9.7,1.3-10.1,3.2c-0.2,0.8,0.3,2.9,7.6,5.8
		c0.2,0.1,0.3,0.4,0.3,0.6c-0.1,0.2-0.4,0.3-0.6,0.3c-7.3-2.9-8.4-5.3-8.1-6.9c0.6-2.8,5.9-3.9,11-3.9c10.6,0.2,22.1,5.1,23.9,15.8
		c0.7,4.1-1.5,6.8-9.8,11.9c-3.5,2.2-4.6,3.8-5.2,11.2C161.9,39.1,161.7,39.3,161.5,39.3z"/>
	<path class="st12" d="M76.6,166.9c3.2,2.5,11.8,5.8,12.3,5.8"/>
	<path class="st12" d="M64.7,176.9c5.7-4.5,7.1-6.3,10-8.1"/>
	<path class="st12" d="M68.1,178.6c5.1-3.2,11.3-7.3,11.3-7.3"/>
	<path class="st12" d="M72.1,179.8c6.1-2.7,10.5-4.7,10.5-4.7"/>
	<path class="st12" d="M270.7,7.7c-3.5,3.3-6.6,7.2-6.6,7.2"/>
	<path class="st12" d="M277.2,6.1c-2.5,5.6-7.1,11.9-7.3,11.9"/>
	<path class="st12" d="M278.4,12.3c-2.9,8.5-5.3,11.4-5.3,11.4"/>
	<path class="st2" d="M180.9,116.2c-0.2,0-0.4-0.2-0.5-0.4c0-0.2,0.2-0.5,0.4-0.5c0.1,0,6.8-0.8,19.8-10.9c0.2-0.2,0.5-0.1,0.6,0.1
		c0.2,0.2,0.1,0.5-0.1,0.6C188,115.4,181.3,116.1,180.9,116.2C181,116.2,181,116.2,180.9,116.2z"/>
	<path class="st2" d="M151.1,119.9c-0.2,0-0.4-0.1-0.4-0.3c-1.6-5.5-2-16.5-0.8-24.6c0-0.2,0.3-0.4,0.5-0.4c0.2,0,0.4,0.3,0.4,0.5
		c-1.2,8-0.8,18.8,0.8,24.2c0.1,0.2-0.1,0.5-0.3,0.6C151.2,119.9,151.2,119.9,151.1,119.9z"/>
	<path class="st10" d="M126.7,266.3c-5.1,9,1.3,13.8,6.3,12.4c5-1.5,11.5-11.4,6.5-16.3C136.3,259.2,130.2,260.2,126.7,266.3z"/>
	<path class="st2" d="M200.6,154.6C200.6,154.6,200.6,154.5,200.6,154.6l-34.8-1.4c-0.3,0-0.4-0.2-0.4-0.5c0-0.3,0.2-0.4,0.5-0.4
		l34.8,1.4c0.3,0,0.4,0.2,0.4,0.5C201,154.4,200.8,154.6,200.6,154.6z"/>
	<path class="st4" d="M170.1,65.5c0,0,12.2,12.1,7.5,13.8c-7.4,2.8-12.3,4.7-27.1,9.8l0,0c0,0,10.7-6.3,15.4-10.3
		C169.4,75.9,173.6,69.9,170.1,65.5z"/>
	<path class="st2" d="M92.4,344.2c-0.1,0-0.2,0-0.2-0.1l-12.7-8c-0.2-0.1-0.3-0.4-0.1-0.6c0.1-0.2,0.4-0.3,0.6-0.1l12.7,8
		c0.2,0.1,0.3,0.4,0.1,0.6C92.6,344.1,92.5,344.2,92.4,344.2z"/>
	<path class="st2" d="M183.9,345C183.9,345,183.9,345,183.9,345l-16.8-0.7c-0.3,0-0.4-0.2-0.4-0.5c0-0.3,0.3-0.4,0.5-0.4l16.8,0.7
		c0.3,0,0.4,0.2,0.4,0.5C184.3,344.8,184.1,345,183.9,345z"/>
	<circle class="st2" cx="182" cy="28.7" r="1.5"/>
	<path class="st2" d="M177.7,27.2C177.7,27.2,177.7,27.2,177.7,27.2c-0.3,0-0.5-0.3-0.5-0.5c0.3-2.3,1.7-3.2,1.8-3.2
		c0.2-0.1,0.5-0.1,0.6,0.2c0.1,0.2,0.1,0.5-0.2,0.6c0,0-1.1,0.7-1.3,2.5C178.1,27,177.9,27.2,177.7,27.2z"/>
</g>
</svg>
