<?xml version="1.0" encoding="utf-8"?>
<!-- Generator: Adobe Illustrator 23.0.1, SVG Export Plug-In . SVG Version: 6.00 Build 0)  -->
<svg version="1.1" id="Layer_1" xmlns="http://www.w3.org/2000/svg" xmlns:xlink="http://www.w3.org/1999/xlink" x="0px" y="0px"
	 viewBox="0 0 537.4 377.4" style="enable-background:new 0 0 537.4 377.4;" xml:space="preserve">
<style type="text/css">
	.st0{opacity:0.54;fill:#F7F7F7;}
	.st1{fill:#38455B;}
	.st2{fill:#CCC9C2;}
	.st3{fill:#93C6FF;}
	.st4{opacity:0.48;fill:#D3EAF2;}
	.st5{fill:#4368B3;}
	.st6{fill:url(#SVGID_1_);}
	.st7{fill:#F7CA7C;}
	.st8{fill:#F3658C;}
	.st9{opacity:0.35;fill:#D9FBFF;}
	.st10{opacity:0.33;fill:#DD704A;}
	.st11{fill:none;stroke:#38455B;stroke-width:0.9734;stroke-linecap:round;stroke-linejoin:round;stroke-miterlimit:10;}
	.st12{opacity:0.6;fill:#FFFFFF;}
	.st13{fill:#DDDDDD;}
	.st14{fill:none;stroke:#4368B3;stroke-width:0.9559;stroke-linecap:round;stroke-linejoin:round;stroke-miterlimit:10;}
	.st15{fill:#FFFFFF;}
	.st16{fill:#EFEFEF;}
	.st17{fill:#FFE8CB;}
</style>
<path class="st0" d="M436.7,377.4"/>
<path class="st1" d="M327.1,217c-0.3,0-0.5-0.2-0.5-0.5v-62.7h-63.5c-0.3,0-0.5-0.2-0.5-0.5s0.2-0.5,0.5-0.5h64
	c0.3,0,0.5,0.2,0.5,0.5v63.2C327.6,216.8,327.4,217,327.1,217z"/>
<path class="st1" d="M327.1,377.1c-0.3,0-0.5-0.2-0.5-0.5V223.8c0-0.3,0.2-0.5,0.5-0.5s0.5,0.2,0.5,0.5v152.8
	C327.6,376.9,327.4,377.1,327.1,377.1z"/>
<path class="st1" d="M263.1,377.3c-0.3,0-0.5-0.2-0.5-0.5V127.3c0-0.3,0.2-0.5,0.5-0.5s0.5,0.2,0.5,0.5v249.5
	C263.5,377.1,263.3,377.3,263.1,377.3z"/>
<path class="st1" d="M327,262.2H221.2c-0.3,0-0.5-0.2-0.5-0.5s0.2-0.5,0.5-0.5H327c0.3,0,0.5,0.2,0.5,0.5S327.2,262.2,327,262.2z"/>
<g>
	<path class="st2" d="M18.8,129.3c-4.8,0-9.1-2-11.9-5.6c-3.3-4.2-4.1-9.9-2.1-15.7c1.4-4.3,4.6-10.7,4.8-10.9
		c0.1-0.3,0.5-0.4,0.8-0.3c0.3,0.1,0.4,0.5,0.3,0.8c0,0.1-3.3,6.6-4.7,10.8c-1.8,5.4-1.1,10.7,2,14.6c2.9,3.7,7.4,5.5,12.4,5.1
		c8.3-0.7,14-3.7,16.5-8.5c2.5-5,1.7-11.9-2.3-18.5c-3.8-6.3-6.2-10.9-6.8-12.2l-13.3,0h0c-0.3,0-0.5-0.2-0.6-0.5
		c-0.1-0.3,0.1-0.5,0.3-0.7l9.6-4.3l-9.4,1c-0.3,0-0.5-0.1-0.6-0.4c-0.1-0.3,0.1-0.6,0.3-0.7l8.9-4.2l-8.2,1.3
		c-0.3,0-0.6-0.1-0.6-0.4c-0.1-0.3,0-0.6,0.3-0.7l8.5-4.1L15,76.4c-0.3,0-0.5-0.1-0.6-0.4s0-0.5,0.2-0.7l6.5-4.7l0-0.7l0.1-69.1
		c0-0.3,0.3-0.6,0.6-0.6c0,0,0,0,0,0c0.3,0,0.6,0.3,0.6,0.6l-0.1,70c0,0.2-0.1,0.4-0.2,0.5l-4.8,3.5l9.2-1.3c0.3,0,0.6,0.1,0.6,0.4
		c0.1,0.3,0,0.6-0.3,0.7l-8.3,4.1l8.3-1.3c0.3,0,0.6,0.1,0.7,0.4c0.1,0.3,0,0.6-0.3,0.7l-9.5,4.5l9.7-1c0.3,0,0.6,0.2,0.6,0.4
		c0.1,0.3-0.1,0.6-0.3,0.7l-10.5,4.7l11,0h0c0.2,0,0.4,0.1,0.5,0.3c0,0,2.5,5.1,6.9,12.4c4.2,7,5.1,14.3,2.3,19.7
		c-2.7,5.2-8.7,8.4-17.5,9.1C19.8,129.3,19.3,129.3,18.8,129.3z"/>
	<path class="st2" d="M25.1,116c-0.5,0-1.4-0.3-1.8-1.7c-0.3-1.1-0.5-3-0.7-5.2c-0.1,0-0.3,0-0.4,0c-0.7,0-1.4,0-2.2,0
		c-0.3,0-0.6,0-0.9,0c-0.5,3.3-1.1,5-1.9,5.2c-0.3,0.1-0.8,0.1-1.3-0.6c-1.2-1.6-1.5-2.9-1-3.9c0.5-0.9,1.5-1.5,3.1-1.8
		c0.5-3.8,0.8-8.7,1-12.1c0.1-2,0.3-3.8,0.4-5.3c0-0.3,0.3-0.6,0.6-0.5c0.3,0,0.6,0.3,0.5,0.6c-0.1,1.5-0.3,3.3-0.4,5.3
		c-0.3,5.1-0.7,9-1,11.9c0.2,0,0.5,0,0.8,0c0.8,0,1.5,0,2.2,0c0.1,0,0.2,0,0.4,0c-0.4-4.7-0.5-10-0.5-10.3c0-0.3,0.2-0.6,0.6-0.6
		c0.4,0,0.6,0.2,0.6,0.6c0,0.1,0.2,5.6,0.5,10.3c0,0,0,0,0,0c2.4,0,4.2,0.3,4.6,2.7c0.4,2.1-1.2,5.1-2.9,5.4
		C25.4,116,25.3,116,25.1,116z M23.8,109c0.2,2.1,0.4,3.9,0.7,4.9c0.2,0.7,0.4,0.9,0.7,0.9c0.9-0.2,2.3-2.4,2-4.1
		C26.9,109.3,26,109,23.8,109z M17.9,109.3c-1,0.2-1.7,0.6-1.9,1.1c-0.4,0.8,0.3,1.9,0.9,2.7c0,0,0.1,0.1,0.1,0.1
		C17.3,112.7,17.6,111.2,17.9,109.3z"/>
</g>
<path class="st1" d="M176.5,377.4c-0.1,0-0.1,0-0.2,0c-0.3-0.1-0.4-0.4-0.3-0.6l86.6-223.6c0.1-0.3,0.4-0.4,0.6-0.3
	c0.3,0.1,0.4,0.4,0.3,0.6L177,377.1C176.9,377.3,176.7,377.4,176.5,377.4z"/>
<path class="st3" d="M193.7,357.6l-39-102.5c0,0,70.2,0,71.2,0c13-0.1,20.7-3.8,25.3-10.2c3.9-5.4,5.3-5.5,2.2-21.2l-26.4,0.1
	l-63.3,0.1l-26.5,0.3c-6.1,0-12.1,2.3-16.5,6.5c-0.8,0.7-1.5,1.5-2.2,2.4c-3.8,4.9-3,12.9-1,20c1.1,4,37.4,104.4,37.4,104.4
	L193.7,357.6z"/>
<path class="st3" d="M242.1,357.6l-36.6-96.4c0,0,70.2,0,71.2,0c17.3,0.1,23.7-3.4,27.8-9c5.2-7.2,5.2-14.5,1.3-28.2l-90.6-0.1
	l2.4,6.1l-29.5,0.3c-6.1,0-12.1,2.3-16.5,6.5c-0.8,0.7-1.5,1.5-2.2,2.4c-3.8,4.9-3,12.9-1,20c1.1,4,35,98.3,35,98.3H242.1z"/>
<g>
	<path class="st4" d="M267.1,106C241.6,106,228,92,235,66.2c3.9-14.2,18.9-28.3,44.9-25.8c27.2,2.7,41.9,27.2,42.3,46.4
		c0.5,24-9.2,45.7-39,60.2c-18.5,9.1-50.4,3.4-49-6.9c0.8-6.1,13.1-2.2,25.6-12.8C273,116,267.1,106,267.1,106z"/>
	<path class="st4" d="M267.1,106C241.6,106,228,92,235,66.2c3.9-14.2,18.9-28.3,44.9-25.8c27.2,2.7,41.9,27.2,42.3,46.4
		c0.5,24-9.2,45.7-39,60.2c-18.5,9.1-50.4,3.4-49-6.9c0.8-6.1,13.1-2.2,25.6-12.8C273,116,267.1,106,267.1,106z"/>
	<path class="st5" d="M250.6,96.6c-1.1,0-2.1-0.8-2.3-1.9c0-0.3,0.1-0.5,0.4-0.5c0.3,0,0.5,0.1,0.5,0.4c0.1,0.7,0.7,1.2,1.5,1.1
		c0.7-0.1,1.2-0.7,1.1-1.5c0-0.3,0.2-0.5,0.4-0.5c0.3,0,0.5,0.2,0.5,0.4c0.1,1.2-0.7,2.3-1.9,2.5C250.8,96.6,250.7,96.6,250.6,96.6z
		"/>
	<path class="st5" d="M256.9,91c-0.1,0-0.3,0-0.3-0.1c-0.9-1-1.8-1.4-2.4-1.3c-0.5,0.1-0.7,0.5-0.9,0.7c-0.1,0.2-0.4,0.3-0.6,0.2
		c-0.2-0.1-0.3-0.4-0.2-0.6c0.3-0.7,0.9-1.2,1.6-1.3c1-0.2,2.1,0.4,3.3,1.6c0.2,0.2,0.2,0.5,0,0.7C257.2,90.9,257,91,256.9,91z"/>
	<path class="st5" d="M246.5,91c-0.1,0-0.2,0-0.3-0.1c-1.1-0.9-1.9-1.1-2.2-0.9c0,0-0.2,0.1-0.2,0.3c0,0.3-0.3,0.5-0.5,0.4
		c-0.3,0-0.5-0.3-0.4-0.5c0.1-0.5,0.3-0.9,0.8-1.1c0.8-0.3,1.9,0,3.2,1.1c0.2,0.2,0.2,0.5,0.1,0.7C246.7,91,246.6,91,246.5,91z"/>
</g>
<linearGradient id="SVGID_1_" gradientUnits="userSpaceOnUse" x1="208.3822" y1="101.681" x2="214.5016" y2="217.9507">
	<stop  offset="0.1696" style="stop-color:#D1D6E2"/>
	<stop  offset="0.4435" style="stop-color:#8BBBFF"/>
	<stop  offset="0.7959" style="stop-color:#F3658C"/>
</linearGradient>
<path class="st6" d="M114.2,186.8h68.6c0,0-12.3-42.1-14.5-48.5c-2.9-8.5,2.1-16.6,10.6-18c6.3-1,68.1-9.8,71.8-10.3
	c10-1.3,18,2.4,23.8,13s38.7,93,38.7,93h-190L114.2,186.8z"/>
<path class="st5" d="M207.1,215.9c-0.2,0-0.4-0.1-0.5-0.4c-5.5-20.8-15.6-50.7-19.7-62.5l-0.4-1.1c-1-2.9-1.6-4.5-1.6-4.5
	c-0.1-0.2,0-0.5,0.3-0.6c0.2-0.1,0.5,0,0.6,0.3c0,0,0.6,1.7,1.6,4.5l0.4,1.1c4.1,11.9,14.2,41.7,19.7,62.6c0.1,0.3-0.1,0.5-0.3,0.6
	C207.2,215.8,207.2,215.9,207.1,215.9z"/>
<path class="st7" d="M218.9,187.2c-13.4-0.8-22.5-0.8-25.4,1.8c-6.1,5.5-10.6,8.2-10.6,9.3c0,1.1,1.6,2.1,6-0.6
	c3.3-2,4.4-2.6,5.2-1.8c0.9,0.9,2.5,15.8,6.2,16.2c2.4,0.3,26.6,0.1,26.6,0.1l0,0L218.9,187.2z"/>
<path class="st5" d="M228.4,215.9c-0.2,0-0.4-0.1-0.5-0.3l-9.2-28.7c0-0.1,0-0.3,0.1-0.4c0.1-0.1,0.2-0.2,0.4-0.2h65.4
	c0.3,0,0.5,0.2,0.5,0.5s-0.2,0.5-0.5,0.5h-64.8l9,28.1c0.1,0.3-0.1,0.5-0.3,0.6C228.5,215.9,228.5,215.9,228.4,215.9z"/>
<path class="st5" d="M267.5,187.2c-0.2,0-0.4-0.1-0.4-0.3c-0.1-0.2-8.2-22-18.5-46.1c-0.1-0.2,0-0.5,0.3-0.6c0.2-0.1,0.5,0,0.6,0.3
	c10.3,24.1,18.4,45.9,18.5,46.1c0.1,0.2,0,0.5-0.3,0.6C267.6,187.2,267.5,187.2,267.5,187.2z"/>
<path class="st7" d="M176.1,81.5c1.7,6.7,7.9,25.6,9.3,29c2.3,5.6,8,6,13.9,4.5l0,0c0.7,1.3,6.9,17.1,8.2,20.2l18.9-18.2l-8.2-21.3
	c0,0,3.1,1.2,3.9-3.6c0.8-5.3-3.4-12.7-8-7c0,0-3.8,1.1-7.7-4.3c-7.1-9.9-14.4-1-21.3,3.1C178.1,88.1,176.1,81.5,176.1,81.5z"/>
<path class="st8" d="M190.8,104.1L190.8,104.1c1-0.3,1.6-1.4,1.3-2.4l-1.4-4.9c-0.3-1-1.4-1.6-2.4-1.3l0,0c-1,0.3-1.6,1.4-1.3,2.4
	l1.4,4.9C188.8,103.8,189.8,104.4,190.8,104.1z"/>
<path class="st1" d="M180,102.2c-1.4,0-2.8-0.6-4.1-1.7c-1.8-1.6-2.9-4.6-2.8-7.3c0.1-2,0.9-3.6,2.2-4.7c1.6-1.2,3.4-1.6,5.2-1.3
	c1.9,0.4,3.7,1.6,4.7,3.2c2,3.1,1.2,8.1-1.7,10.4C182.5,101.7,181.3,102.2,180,102.2z M179.4,88.1c-1,0-2.2,0.3-3.4,1.2
	c-1.4,1.1-1.8,2.7-1.9,3.9c-0.1,2.4,0.9,5.2,2.4,6.5c0,0,0,0,0,0c2,1.8,4.5,2,6.5,0.3c2.5-2,3.2-6.4,1.4-9.1
	c-0.9-1.4-2.4-2.5-4.1-2.8C180.1,88.1,179.8,88.1,179.4,88.1z"/>
<path class="st1" d="M197,98.4c-0.7,0-1.3-0.1-2-0.3l0,0c-2.8-0.8-5.3-3.7-6.2-7c-0.6-2.3-0.1-4.4,1.2-5.8c3.4-3.4,8.9-3.1,12.1-0.9
	c1.5,1.1,2.5,2.7,2.8,4.7c0.3,2.1-0.2,4.3-1.4,5.8C201.9,97.2,199.5,98.4,197,98.4z M196.7,83.8c-2.1,0-4.2,0.7-5.9,2.3
	c-1.1,1.1-1.4,2.8-1,4.8c0.7,3,3,5.5,5.5,6.3l0,0c2.6,0.8,5.6-0.3,7.5-2.9c1-1.3,1.5-3.3,1.2-5.1c-0.2-1.2-0.8-2.8-2.4-4
	C200.3,84.3,198.5,83.8,196.7,83.8z"/>
<path class="st1" d="M184.9,93.2c-0.2,0-0.4-0.1-0.5-0.4c-0.1-0.3,0.1-0.5,0.3-0.6c4-1.1,5.3-1.4,5.3-1.4c0.3-0.1,0.5,0.1,0.6,0.4
	c0.1,0.3-0.1,0.5-0.4,0.6c0,0-1.4,0.3-5.3,1.4C185,93.2,184.9,93.2,184.9,93.2z"/>
<circle class="st1" cx="182.6" cy="95.4" r="1.2"/>
<circle class="st1" cx="195.7" cy="92.4" r="1.2"/>
<path class="st9" d="M168,249.2c0,9.5,7.3,10.5,10.6,7.1c3.3-3.4,4.1-14.3-2.2-16C172.5,239.1,168,242.7,168,249.2z"/>
<path class="st9" d="M116.7,241.7c0,9.5,7.3,10.5,10.6,7.1c3.3-3.4,4.1-14.3-2.2-16C121.3,231.7,116.8,235.2,116.7,241.7z"/>
<path class="st1" d="M192.5,109.9c-1.5,0-2.7-0.7-2.7-0.8c-0.2-0.1-0.3-0.4-0.1-0.7c0.1-0.2,0.4-0.3,0.7-0.1c0,0,1.4,0.9,3.1,0.5
	c1.3-0.3,2.4-1.2,3.3-2.7c0.1-0.2,0.4-0.3,0.7-0.2c0.2,0.1,0.3,0.4,0.2,0.7c-1.1,1.8-2.4,2.8-3.9,3.2
	C193.2,109.9,192.8,109.9,192.5,109.9z"/>
<path class="st10" d="M177.5,84.1c3.9,3,8.9,2.6,16.2-2.2c0,0,6,0.7,11.5-2.1c0,0-2.4-5-7.7-3.3c-3,0.9-7.5,5-12.2,7.6
	C181.6,86.1,177.5,84.1,177.5,84.1z"/>
<path class="st1" d="M166.5,78.7c-0.3,0-0.6-0.1-0.8-0.2c-0.3-0.2-0.7-0.6-0.7-1.5c0.1-2.5,3.8-7.9,8.2-10.2
	c-1.3-0.9-2.3-1.9-2.4-3.1c-0.2-2.1,2.3-3.7,7.3-4.9c5.6-1.3,10.6-0.7,14.3,0.5c-0.3-1.6-0.3-3.2,0.4-4.5c1.1-2.2,4.4-4.5,13.5-2.3
	c13,3,19.1,8.1,18.7,15.5c-0.3,5.5-2.8,10.1-2.9,10.3c-0.1,0.2-0.4,0.3-0.7,0.2c-0.2-0.1-0.3-0.4-0.2-0.7c0,0,2.5-4.7,2.7-9.9
	c0.4-6.9-5.5-11.7-17.9-14.6c-6.7-1.6-11-0.9-12.4,1.8c-0.6,1.3-0.6,2.9-0.2,4.5c3,1.2,5,2.9,5.7,4.2c0.4,1,0.2,1.8-0.5,2.4
	c-0.4,0.3-1.3,0.6-2.6-0.6c-1.3-1.1-2.6-3.1-3.3-5.3c-3.6-1.4-8.6-2.1-14.4-0.7c-4.4,1-6.7,2.4-6.6,3.9c0.1,1,1.1,1.9,2.5,2.7
	c4.8-2,6.7-0.9,7.3-0.3c0.6,0.6,0.8,1.4,0.5,2c-0.3,0.7-1,1.1-1.8,1.1c-1.6,0-4.1-0.7-6-1.7c0,0,0,0-0.1,0c-4.2,1.9-8.1,7.3-8.2,9.6
	c0,0.2,0,0.5,0.2,0.6c0.1,0.1,1,0.4,4-1.7c0.2-0.2,0.5-0.1,0.7,0.1c0.2,0.2,0.1,0.5-0.1,0.7C168.8,78.1,167.4,78.7,166.5,78.7z
	 M175.4,66.9c1.6,0.7,3.5,1.2,4.9,1.2c0.4,0,0.7-0.2,0.8-0.5c0.1-0.2,0.1-0.6-0.2-1C180.2,66,178.4,65.8,175.4,66.9z M193.9,61
	c0.7,1.7,1.7,3.2,2.7,4c0.6,0.5,1.2,0.7,1.4,0.5c0.2-0.2,0.5-0.5,0.2-1.2C197.8,63.4,196.3,62.1,193.9,61z"/>
<path class="st11" d="M214.1,85.2c0,0,1-2.8,4.4-2.2s4.3,6.4,4,8.4"/>
<path class="st11" d="M219.1,87.3c0.1,1.9-1.3,3.6-1.3,3.6"/>
<path class="st11" d="M218.9,89.7c0.5,0.3,1.4,1,1.6,1.6"/>
<path class="st1" d="M194.4,90.6c-0.1,0-0.2,0-0.3,0c-0.3,0-0.5-0.2-0.5-0.5c0-0.3,0.2-0.5,0.5-0.5c1.2,0.1,2.2-0.4,2.2-0.4
	c0.2-0.1,0.5,0,0.6,0.3c0.1,0.2,0,0.5-0.3,0.6C196.7,90.2,195.6,90.6,194.4,90.6z"/>
<path class="st12" d="M180.1,103.7c-2.6,4,1.4,5.9,3.3,5.4c2-0.6,4.4-3.9,2.5-5.8C184.7,102,181.6,101.4,180.1,103.7z"/>
<path class="st12" d="M199.3,98.8c-3.6,3-0.4,6.1,1.6,6.1c2,0,5.4-2.4,4-4.8C204.1,98.5,201.4,97,199.3,98.8z"/>
<path class="st1" d="M181,85.6c-0.7,0-1.4-0.1-2-0.3c-2.5-0.8-4-3-4.5-4.8c-0.1-0.3,0.1-0.5,0.3-0.6c0.3-0.1,0.5,0.1,0.6,0.3
	c0.5,1.6,1.7,3.5,3.9,4.1c2.8,0.8,6.5-0.5,10.7-4c4.3-3.5,7.7-5.1,10.5-4.7c2.6,0.3,4.3,2.2,5.5,3.8c0.2,0.3,0.4,0.6,0.7,0.9
	c1.3,1.7,2.3,3.1,4.1,3.7c0.3,0.1,0.4,0.4,0.3,0.6c-0.1,0.3-0.4,0.4-0.6,0.3c-2.1-0.7-3.3-2.2-4.6-4.1c-0.2-0.3-0.4-0.6-0.6-0.9
	c-1.1-1.5-2.6-3.1-4.8-3.4c-2.5-0.3-5.7,1.2-9.8,4.5C187,84.1,183.8,85.6,181,85.6z"/>
<path class="st5" d="M203.7,209.4c-0.1,0-0.2,0-0.2-0.1c-1.6-0.9-2.7-2.8-1.8-4.8c0.3-0.7,0.3-2.5-0.8-3.1c-1.6-0.9-2.1-2-1.8-3.9
	c0-0.3,0.1-0.5,0.1-0.7c0.2-1.4,0.2-2-0.5-2.4c-1-0.6-1.9-1.7-2.2-2.8c-0.2-0.8-0.1-1.7,0.3-2.4c0.1-0.2,0.4-0.3,0.7-0.2
	c0.2,0.1,0.3,0.4,0.2,0.7c-0.3,0.5-0.4,1-0.2,1.6c0.2,0.9,0.9,1.8,1.7,2.2c1.3,0.8,1.2,2,1,3.4c0,0.2-0.1,0.5-0.1,0.7
	c-0.2,1.8,0.2,2.3,1.3,3c1.5,0.9,1.7,3.1,1.2,4.3c-0.8,1.8,0.6,3.2,1.4,3.6c0.2,0.1,0.3,0.4,0.2,0.6
	C204.1,209.3,203.9,209.4,203.7,209.4z"/>
<path class="st11" d="M31.8,216"/>
<polygon class="st13" points="173.7,216 148.1,173.4 79.8,173.4 107.6,216 "/>
<rect x="113.4" y="212.3" transform="matrix(-1 -4.497392e-11 4.497392e-11 -1 330.8076 428.3087)" class="st13" width="104.1" height="3.8"/>
<path class="st11" d="M29.2,223.6"/>
<polyline class="st14" points="204.6,128.4 207.6,135.2 228.2,115.7 "/>
<path class="st1" d="M242.9,377.3c-0.1,0-0.1,0-0.2,0c-0.3-0.1-0.4-0.4-0.3-0.6l84.2-223.5c0.1-0.3,0.4-0.4,0.6-0.3
	c0.3,0.1,0.4,0.4,0.3,0.6L243.4,377C243.3,377.2,243.1,377.3,242.9,377.3z"/>
<g>
	<rect x="33" y="216.4" class="st15" width="370.8" height="7.2"/>
	<path class="st1" d="M403.8,224.1H33c-0.3,0-0.5-0.2-0.5-0.5v-7.2c0-0.3,0.2-0.5,0.5-0.5h370.8c0.3,0,0.5,0.2,0.5,0.5v7.2
		C404.3,223.9,404,224.1,403.8,224.1z M33.5,223.1h369.8v-6.2H33.5V223.1z"/>
</g>
<path class="st10" d="M199.4,115.1c0,0,2.3-0.5,8.6-4c0,0,0.1,7.9-5.6,11.1L199.4,115.1z"/>
<path class="st5" d="M167.3,255.6c-0.2,0-0.4-0.2-0.5-0.4c-1-4.5-1.4-13.5,1.5-18.4c3.6-6.2,10.4-9.6,19.1-9.6H239
	c0.3,0,0.5,0.2,0.5,0.5s-0.2,0.5-0.5,0.5h-51.6c-8.4,0-14.8,3.2-18.3,9.1c-2.8,4.7-2.3,13.4-1.3,17.8c0.1,0.3-0.1,0.5-0.4,0.6
	C167.3,255.6,167.3,255.6,167.3,255.6z"/>
<path class="st1" d="M187.1,82.2c-4.2,0-7.5-1.1-9.2-2.7c-1.3-1.2-1.6-2.6-0.9-3.8c0.1-0.2,0.4-0.3,0.7-0.2c0.2,0.1,0.3,0.4,0.2,0.7
	c-0.6,1.1,0.1,2.1,0.7,2.7c3.5,3.2,14.2,4.4,26.1-3.3c0.2-0.1,0.5-0.1,0.7,0.1c0.1,0.2,0.1,0.5-0.1,0.7
	C198.4,80.6,192.1,82.2,187.1,82.2z"/>
<path class="st1" d="M180.1,94c-0.2,0-0.3-0.1-0.4-0.2c-0.2-0.2-0.1-0.5,0.1-0.7c0,0,1.1-0.8,2.5-1c0.3,0,0.5,0.1,0.6,0.4
	c0,0.3-0.1,0.5-0.4,0.6c-1.1,0.2-2.1,0.9-2.1,0.9C180.3,94,180.2,94,180.1,94z"/>
<ellipse transform="matrix(0.8403 -0.5421 0.5421 0.8403 -86.2335 98.7565)" class="st16" cx="124.5" cy="195.7" rx="3.3" ry="5.2"/>
<path class="st1" d="M193.7,357.6c3.9,9.2,6.2,14.1,6.2,15.9c-0.1,2.3-1.2,3.7-4.8,3.9c-3,0.1-62.6,0-65.6,0c-3,0-4.7-4.4-1.6-6
	c3.2-1.7,19.6-4.8,25.4-6.2c4.6-1.1,1.7-7.6,1.7-7.6H193.7z"/>
<path class="st1" d="M242.1,357.6c3.9,9.2,6.3,14.1,6.2,15.9c-0.1,2.3-1.1,3.5-4.7,3.6c-3,0.1-62.6,0.2-65.6,0.2s-4.8-4.3-1.7-5.9
	c3.2-1.7,19.6-4.6,25.4-6.2c4.8-1.4,1.7-7.6,1.7-7.6H242.1z"/>
<path class="st2" d="M178.4,377.4c-1.9,0-3.3-1.6-3.6-3.1c-0.4-1.6,0.3-3.1,1.8-3.9c2.5-1.3,12.3-3.4,19.5-4.9
	c2.1-0.4,4-0.8,5.4-1.1c1-0.2,1.6-0.7,2-1.4c1-2-0.3-5.1-0.3-5.1c-0.1-0.3,0-0.5,0.3-0.7c0.3-0.1,0.5,0,0.7,0.3
	c0.1,0.1,1.5,3.6,0.2,6c-0.5,1-1.4,1.7-2.7,1.9c-1.4,0.3-3.2,0.7-5.4,1.1c-6.7,1.4-16.8,3.5-19.2,4.8c-1.1,0.6-1.5,1.6-1.3,2.8
	c0.3,1.1,1.3,2.3,2.7,2.3L178.4,377.4z"/>
<path class="st1" d="M511.7,377.4H0.8c-0.3,0-0.5-0.2-0.5-0.5s0.2-0.5,0.5-0.5h510.9c0.3,0,0.5,0.2,0.5,0.5S512,377.4,511.7,377.4z"
	/>
<path class="st1" d="M55,376.4C55,376.4,55,376.4,55,376.4c-0.3,0-0.5-0.3-0.5-0.5l17.6-151.8c0-0.3,0.3-0.5,0.5-0.4
	c0.3,0,0.5,0.3,0.4,0.5L55.5,376C55.5,376.2,55.3,376.4,55,376.4z"/>
<path class="st1" d="M381.2,376.5c-0.2,0-0.5-0.2-0.5-0.4L363,223.9c0-0.3,0.2-0.5,0.4-0.5c0.3,0,0.5,0.2,0.5,0.4L381.7,376
	C381.7,376.2,381.5,376.5,381.2,376.5C381.3,376.5,381.2,376.5,381.2,376.5z"/>
<path class="st1" d="M72.6,376.5c-0.2,0-0.5-0.2-0.5-0.4L54.3,223.7c0-0.3,0.2-0.5,0.4-0.5c0.3,0,0.5,0.2,0.5,0.4l17.8,152.3
	C73.1,376.2,72.9,376.4,72.6,376.5C72.7,376.5,72.6,376.5,72.6,376.5z"/>
<path class="st1" d="M363.5,376.5C363.5,376.5,363.4,376.5,363.5,376.5c-0.3,0-0.5-0.3-0.5-0.5l17.7-152.3c0-0.3,0.3-0.5,0.5-0.4
	c0.3,0,0.5,0.3,0.4,0.5L364,376.1C363.9,376.3,363.7,376.5,363.5,376.5z"/>
<path class="st17" d="M435.4,339.2c-6.8,15.6,10.9,36.4,30.8,36.9c39.5,1,61.8-9.9,60.1-28.9C524.8,329.6,439,330.9,435.4,339.2z"/>
<path class="st17" d="M471.5,322.8c1.3-32.9-32.1-61.8-52.8-53.8c-18,7,9.2,10.3,14.6,15.7c5.3,5.4-6.6,5.5-2.8,11.9
	c3.3,5.7,12.5,0.5,16.5,5.7c1.8,2.3-4.3,4.7-1.2,9.3c2.1,3,7.1,0.9,15.4-0.7C465.5,310,471.5,322.8,471.5,322.8z"/>
<path class="st17" d="M476.6,324.1c1-24-8.2-68.6-16.2-89.9c-7.4-19.7,31.5-33.6,37.2-21.8c5.7,11.8-12.1,22-8.9,28.9
	c3.2,6.9,13.8,11,8,18.6c-5.8,7.6-18.2,3.3-15.7,13.4c2.5,10.1,15.1,12.5,12.2,19.4s-13,4.4-7.5,12.5c5.1,7.7,2.7,11.5-3.6,12.2
	C477.4,318,476.6,324.1,476.6,324.1z"/>
<path class="st17" d="M488.9,325.1c10.3-34.8,15.9-56.9,35.6-51.8c22.1,5.7,10.2,18.8,5.5,18.1c-10.2-1.5-16.1,1.1-12.9,7.1
	c3.6,6.6,6.6,11.5-0.1,11.6c-4.7,0.1-13.3-1.8-10.9,6c2.1,6.9,0.9,11.1-3.3,6.8C496.4,316.4,488.9,325.1,488.9,325.1z"/>
<path class="st2" d="M486.5,333c0,0-0.1,0-0.1,0c-0.3-0.1-0.5-0.4-0.4-0.7c2.5-10.4,19.7-62.7,40.4-62.7c0.1,0,0.3,0,0.4,0
	c0.3,0,0.6,0.3,0.6,0.6c0,0.3-0.3,0.6-0.6,0.6c-18.3-0.5-35.7,45.8-39.6,61.8C487,332.9,486.7,333,486.5,333z"/>
<path class="st2" d="M477.2,333.6c-0.3,0-0.6-0.2-0.6-0.5c-1.1-18.1-4.7-32.9-7.9-45.9c-4.4-17.7-8.1-33.1-3.9-50.4
	c2.8-11.4,8.8-26.6,21.1-34.4c7.4-4.7,13.6-4.5,13.9-4.5c0.3,0,0.6,0.3,0.6,0.6c0,0.3-0.3,0.6-0.6,0.6c-0.2,0-24.2-0.5-33.8,38.1
	c-4.2,17-0.5,32.2,3.9,49.8c3.2,13.1,6.9,27.9,8,46.1C477.8,333.3,477.6,333.5,477.2,333.6C477.3,333.6,477.3,333.6,477.2,333.6z"/>
<path class="st2" d="M472.2,333c-0.3,0-0.6-0.2-0.6-0.5c-0.7-8.5-3.4-22.5-8-34.7c-3.9-10.4-10.4-23.3-19.9-25.8
	c-16.5-4.3-25.3,9.1-25.4,9.2c-0.2,0.3-0.5,0.4-0.8,0.2c-0.3-0.2-0.4-0.5-0.2-0.8c0.1-0.1,9.4-14.3,26.7-9.7
	c18.5,4.9,27.5,46.8,28.7,61.5C472.8,332.7,472.6,333,472.2,333C472.3,333,472.3,333,472.2,333z"/>
<path class="st2" d="M452.9,318.4c-0.5,0-1-0.1-1.5-0.3c-2.9-1.1-2.4-4.4-2-7.5c0.4-2.7,0.8-5.4-0.7-7.1c-2.6-2.8-7.1-2.3-10.7-1.8
	c-3.4,0.4-6.3,0.8-6.8-1.6c-0.5-2.4,1.1-4,2.5-5.4c1.4-1.5,2.8-2.8,2.2-4.9c-1.2-4.5-4.8-6.3-6.9-6.5c-0.3,0-0.6-0.3-0.5-0.6
	s0.3-0.6,0.6-0.5c2.4,0.2,6.5,2.3,7.9,7.3c0.7,2.8-1,4.5-2.5,6.1c-1.4,1.4-2.6,2.6-2.2,4.3c0.3,1.3,2.3,1.1,5.5,0.7
	c3.9-0.5,8.7-1.1,11.7,2.2c1.8,2,1.4,5.2,1,8c-0.5,3.4-0.6,5.5,1.2,6.3c1.9,0.7,3.9-0.7,6-2.2c2.7-1.9,5.7-4,8.6-1.5
	c0.2,0.2,0.3,0.6,0.1,0.8s-0.6,0.3-0.8,0.1c-2.1-1.8-4.1-0.6-7.1,1.5C456.7,317.1,454.8,318.4,452.9,318.4z"/>
<path class="st2" d="M484.6,315c-0.2,0-0.4-0.1-0.5-0.3c-0.2-0.3-0.1-0.6,0.2-0.8c0.1,0,5.3-3.6,6.5-8.4c0.4-1.7-1.4-3.4-3.1-5
	c-1.7-1.6-3.4-3.1-3.1-4.8c0.2-1.3,1.4-2.3,3.7-3.4c1.1-0.5,1.9-1.5,2.2-2.9c0.6-3.1-1.1-7.6-4.4-11.1c-1.6-1.7-2.3-3.2-2.2-4.6
	c0.1-2.4,2.4-4.2,5.2-6.5c1.1-0.9,2.4-2,3.7-3.2c4.3-4.1,0.9-8.2-3.3-13.4c-1.2-1.5-2.5-3-3.6-4.7c-0.8-1.1-1.1-2.2-0.8-3.1
	c0.5-2.1,3.3-3.4,6.4-5c5.1-2.5,10.5-5.1,8.2-11.3c-0.1-0.3,0-0.6,0.3-0.7c0.3-0.1,0.6,0,0.7,0.3c2.6,7.2-3.7,10.3-8.8,12.8
	c-2.8,1.4-5.4,2.6-5.8,4.2c-0.2,0.6,0,1.4,0.6,2.2c1.1,1.6,2.4,3.1,3.6,4.6c4.3,5.2,8.3,10.2,3.2,15c-1.3,1.2-2.6,2.3-3.7,3.2
	c-2.6,2.1-4.6,3.8-4.7,5.7c-0.1,1.1,0.6,2.3,1.9,3.8c3.6,3.8,5.4,8.5,4.7,12.1c-0.4,1.8-1.3,3.1-2.9,3.8c-1.9,0.8-2.9,1.7-3,2.5
	c-0.2,1.1,1.3,2.5,2.7,3.8c1.9,1.8,4.1,3.7,3.5,6.1c-1.3,5.2-6.8,8.9-7,9.1C484.8,315,484.7,315,484.6,315z"/>
<path class="st2" d="M501.8,326C501.8,326,501.8,326,501.8,326c-0.8,0-1.2-0.9-1.7-2.1c-0.7-1.6-1.6-3.8-3.5-4
	c-0.3,0-0.6-0.3-0.5-0.6c0-0.3,0.3-0.6,0.6-0.5c2.5,0.3,3.7,2.9,4.4,4.7c0.2,0.5,0.5,1.1,0.6,1.3c0.1-0.1,0.2-0.2,0.3-0.5
	c0.7-1.3,0.6-3.5,0.6-5.7c-0.1-2.6-0.1-4.8,1-5.8c0.5-0.4,1.2-0.6,2-0.5c0.5,0.1,1.2,0.2,1.8,0.3c2.7,0.5,6.8,1.2,7.7,0
	c0.3-0.4,0.3-1-0.1-1.9c-1-2.4-3.1-8.5-1.2-11.8c0.7-1.2,1.8-1.9,3.3-2.2c1.7-0.3,3.7-0.1,5.7,0.1c4.3,0.3,8.4,0.7,10.2-2.9
	c3.3-6.5-8.3-15-8.5-15.1c-0.3-0.2-0.3-0.6-0.1-0.8c0.2-0.3,0.6-0.3,0.8-0.1c0.5,0.4,12.6,9.2,8.8,16.6c-2.2,4.2-7,3.9-11.3,3.5
	c-2-0.2-3.8-0.3-5.4-0.1c-1.2,0.2-2,0.7-2.5,1.6c-1.2,2-0.7,6.1,1.2,10.8c0.5,1.3,0.5,2.3-0.1,3c-1.4,1.7-5.3,1-8.8,0.4
	c-0.6-0.1-1.2-0.2-1.8-0.3c-0.5-0.1-0.8,0-1,0.2c-0.8,0.7-0.7,2.8-0.6,4.9c0.1,2.3,0.1,4.6-0.7,6.2C502.9,325.3,502.4,326,501.8,326
	z"/>
<path class="st2" d="M482.5,376.5c-16.5,0-35.9-4.4-47.9-21.8c-0.8-1.2-0.8-2.4,0-3.5c4.7-5.9,35.8-6.6,45.3-6.7
	c22.9-0.2,43.8,1.6,50.7,4.4c2,0.8,2.9,1.7,2.8,2.7c-0.1,1.4-1.8,3.3-14.2,5.9c-0.3,0.1-0.6-0.1-0.7-0.5c-0.1-0.3,0.1-0.6,0.5-0.7
	c12.1-2.6,13.2-4.4,13.3-4.9c0-0.2-0.1-0.8-2.1-1.5c-6.7-2.7-27.8-4.5-50.3-4.3c-24.5,0.2-41.5,2.6-44.4,6.3c-0.5,0.7-0.5,1.3,0,2.1
	c13.7,19.9,37.3,22.4,54.7,21c0.3,0,0.6,0.2,0.6,0.5c0,0.3-0.2,0.6-0.5,0.6C487.9,376.3,485.2,376.5,482.5,376.5z"/>
</svg>
